<svg width="50" height="67" viewBox="0 0 50 67" fill="none" xmlns="http://www.w3.org/2000/svg">
<g filter="url(#filter0_ii_17753_58055)">
<path d="M13.75 43.3535H35.75V61.4311C35.75 62.6934 34.3905 63.4881 33.2906 62.8689L25.5594 58.5166C25.0569 58.2337 24.4431 58.2337 23.9406 58.5166L16.2094 62.8689C15.1095 63.4881 13.75 62.6933 13.75 61.4311V43.3535Z" fill="url(#paint0_linear_17753_58055)"/>
</g>
<g filter="url(#filter1_ii_17753_58055)">
<path d="M18.1499 47.7539H31.3499V64.8432C31.3499 66.288 29.6245 67.035 28.5709 66.0465L25.8789 63.5206C25.2441 62.925 24.2557 62.925 23.6209 63.5206L20.9289 66.0465C19.8753 67.035 18.1499 66.288 18.1499 64.8432V47.7539Z" fill="url(#paint1_linear_17753_58055)"/>
</g>
<g filter="url(#filter2_ii_17753_58055)">
<path fill-rule="evenodd" clip-rule="evenodd" d="M2.77706 54.2587C3.13517 54.4616 3.4774 54.293 3.62734 54.1958C3.79854 54.0848 3.94637 53.928 4.05477 53.7988C4.10313 53.7412 4.14795 53.6824 4.1889 53.6269C6.09123 54.3834 7.977 54.4525 9.88308 53.4333C11.883 52.3637 13.8332 50.132 15.8764 46.461C16.0134 46.2147 15.9253 45.9059 15.6774 45.7654L7.65908 41.2236C7.40693 41.0808 7.0847 41.1659 6.93923 41.4131C5.9011 43.1773 6.54541 44.4783 6.84099 45.6252C6.99017 46.2041 7.07562 46.7837 6.93418 47.4738C6.89433 47.6682 6.83452 47.8744 6.75168 48.0952C6.47197 47.1758 6.06038 46.268 5.80054 45.7526C5.79985 45.7511 5.79998 45.7493 5.79926 45.7479C5.52477 45.2026 5.50376 44.7864 5.45034 44.3725C5.42501 44.1764 5.38606 43.9219 5.2562 43.6912C5.11062 43.4325 4.88276 43.2527 4.57984 43.1378C4.48382 43.1014 4.3792 43.0936 4.2795 43.1145C4.16503 43.1386 4.06704 43.1818 3.98384 43.2367C3.92722 43.1969 3.85312 43.1449 3.77015 43.0938C3.59732 42.9873 3.34994 42.8604 3.04803 42.8251C2.40416 42.75 1.80917 43.104 1.28662 43.9165L1.2842 43.9206L1.18472 44.0827L1.18274 44.0861C1.08362 44.2545 1.02865 44.4787 0.991458 44.6741C0.950814 44.8877 0.919092 45.1417 0.893658 45.4136C0.842676 45.9587 0.813998 46.6121 0.798358 47.2351C0.782678 47.86 0.779898 48.4626 0.780847 48.9081C0.781322 49.1309 0.782586 49.3149 0.783922 49.4434C0.784583 49.5069 0.784947 49.5579 0.785425 49.5926L0.785954 49.6322C0.786015 49.6362 0.786378 49.6397 0.786506 49.6425C0.786511 49.6482 0.786567 49.654 0.787028 49.6597L0.789753 49.6956C0.790097 49.6999 0.790733 49.7042 0.79133 49.7084C0.794387 49.7301 0.798811 49.7509 0.803913 49.7698L0.804979 49.7749C0.807215 49.7836 0.809196 49.7902 0.811836 49.8012C0.817727 49.8257 0.826238 49.8624 0.835602 49.9082C0.854636 50.0013 0.877272 50.1297 0.891881 50.2721C0.915541 50.5029 0.911066 50.7165 0.875203 50.8729C0.383509 51.1844 0.187688 51.7015 0.0706256 51.9004C0.000772046 52.0192 -0.0181979 52.1603 0.0178908 52.2926C0.0712418 52.4882 0.194814 52.6497 0.372173 52.7502C0.532563 52.841 0.700734 52.8619 0.828679 52.8624C1.07797 52.8634 1.33952 52.7868 1.53847 52.7149C1.73637 52.6434 1.92442 52.5562 2.06562 52.4864L2.2281 52.5785C2.22697 52.6518 2.22715 52.7344 2.23238 52.8238C2.25215 53.1615 2.32926 53.6296 2.5825 54.0669L2.59094 54.0801L2.61335 54.1127L2.62115 54.1236C2.66312 54.1778 2.716 54.2241 2.77706 54.2587Z" fill="url(#paint2_linear_17753_58055)"/>
<path fill-rule="evenodd" clip-rule="evenodd" d="M46.7229 54.2587C46.3648 54.4616 46.0226 54.293 45.8727 54.1958C45.7015 54.0848 45.5536 53.928 45.4452 53.7988C45.3969 53.7412 45.3521 53.6824 45.3111 53.6269C43.4088 54.3834 41.523 54.4525 39.6169 53.4333C37.617 52.3637 35.6668 50.132 33.6236 46.461C33.4866 46.2147 33.5747 45.9059 33.8226 45.7654L41.8409 41.2236C42.0931 41.0808 42.4153 41.1659 42.5608 41.4131C43.5989 43.1773 42.9546 44.4783 42.659 45.6252C42.5098 46.2041 42.4244 46.7837 42.5658 47.4738C42.6057 47.6682 42.6655 47.8744 42.7483 48.0952C43.028 47.1758 43.4396 46.268 43.6995 45.7526C43.7001 45.7511 43.7 45.7493 43.7007 45.7479C43.9752 45.2026 43.9962 44.7864 44.0497 44.3725C44.075 44.1764 44.1139 43.9219 44.2438 43.6912C44.3894 43.4325 44.6172 43.2527 44.9202 43.1378C45.0162 43.1014 45.1208 43.0936 45.2205 43.1145C45.335 43.1386 45.433 43.1818 45.5162 43.2367C45.5728 43.1969 45.6469 43.1449 45.7298 43.0938C45.9027 42.9873 46.1501 42.8604 46.452 42.8251C47.0958 42.75 47.6908 43.104 48.2134 43.9165L48.2158 43.9206L48.3153 44.0827L48.3173 44.0861C48.4164 44.2545 48.4714 44.4787 48.5085 44.6741C48.5492 44.8877 48.5809 45.1417 48.6063 45.4136C48.6573 45.9587 48.686 46.6121 48.7016 47.2351C48.7173 47.86 48.7201 48.4626 48.7192 48.9081C48.7187 49.1309 48.7174 49.3149 48.7161 49.4434C48.7154 49.5069 48.7151 49.5579 48.7146 49.5926L48.714 49.6322C48.714 49.6362 48.7136 49.6397 48.7135 49.6425C48.7135 49.6482 48.7134 49.654 48.713 49.6597L48.7102 49.6956C48.7099 49.6999 48.7093 49.7042 48.7087 49.7084C48.7056 49.7301 48.7012 49.7509 48.6961 49.7698L48.695 49.7749C48.6928 49.7836 48.6908 49.7902 48.6882 49.8012C48.6823 49.8257 48.6738 49.8624 48.6644 49.9082C48.6454 50.0013 48.6227 50.1297 48.6081 50.2721C48.5845 50.5029 48.5889 50.7165 48.6248 50.8729C49.1165 51.1844 49.3123 51.7015 49.4294 51.9004C49.4992 52.0192 49.5182 52.1603 49.4821 52.2926C49.4288 52.4882 49.3052 52.6497 49.1278 52.7502C48.9674 52.841 48.7993 52.8619 48.6713 52.8624C48.422 52.8634 48.1605 52.7868 47.9615 52.7149C47.7636 52.6434 47.5756 52.5562 47.4344 52.4864L47.2719 52.5785C47.273 52.6518 47.2728 52.7344 47.2676 52.8238C47.2478 53.1615 47.1707 53.6296 46.9175 54.0669L46.9091 54.0801L46.8866 54.1127L46.8788 54.1236C46.8369 54.1778 46.784 54.2241 46.7229 54.2587Z" fill="url(#paint3_linear_17753_58055)"/>
</g>
<path d="M18.2134 13.1259C22.165 10.1638 27.335 10.1638 31.2866 13.1259C33.3038 14.6379 35.7003 16.6553 38.3497 19.3046C40.999 21.954 43.0164 24.3505 44.5284 26.3677C47.4905 30.3193 47.4905 35.4893 44.5284 39.4409C43.0164 41.4581 40.999 43.8546 38.3497 46.504C35.7003 49.1533 33.3038 51.1707 31.2866 52.6827C27.335 55.6448 22.165 55.6448 18.2134 52.6827C16.1962 51.1707 13.7997 49.1533 11.1503 46.504C8.50096 43.8546 6.48359 41.4581 4.97157 39.4409C2.00948 35.4893 2.00948 30.3193 4.97156 26.3677C6.48359 24.3505 8.50096 21.954 11.1503 19.3046C13.7997 16.6553 16.1962 14.6379 18.2134 13.1259Z" fill="#F4F5F2"/>
<path d="M18.2134 13.1259C22.165 10.1638 27.335 10.1638 31.2866 13.1259C33.3038 14.6379 35.7003 16.6553 38.3497 19.3046C40.999 21.954 43.0164 24.3505 44.5284 26.3677C47.4905 30.3193 47.4905 35.4893 44.5284 39.4409C43.0164 41.4581 40.999 43.8546 38.3497 46.504C35.7003 49.1533 33.3038 51.1707 31.2866 52.6827C27.335 55.6448 22.165 55.6448 18.2134 52.6827C16.1962 51.1707 13.7997 49.1533 11.1503 46.504C8.50096 43.8546 6.48359 41.4581 4.97157 39.4409C2.00948 35.4893 2.00948 30.3193 4.97156 26.3677C6.48359 24.3505 8.50096 21.954 11.1503 19.3046C13.7997 16.6553 16.1962 14.6379 18.2134 13.1259Z" fill="url(#paint4_linear_17753_58055)"/>
<g filter="url(#filter3_ii_17753_58055)">
<path d="M18.2133 13.1258C22.1649 10.1638 27.3349 10.1638 31.2865 13.1258C33.3037 14.6379 35.7002 16.6554 38.3495 19.3047C40.9989 21.9541 43.0164 24.3506 44.5284 26.3677C47.4905 30.3193 47.4905 35.4894 44.5284 39.441L44.2389 39.8234C42.7617 41.7585 40.8334 44.0201 38.3495 46.504C35.7002 49.1533 33.3037 51.1708 31.2865 52.6829L31.1001 52.8193C27.2358 55.599 22.2641 55.599 18.3997 52.8193L18.2133 52.6829C16.3222 51.2653 14.0976 49.4035 11.6439 46.9933L11.1503 46.504C8.50093 43.8546 6.48341 41.4581 4.97139 39.441C2.05564 35.5511 2.01035 30.4808 4.83496 26.5541L4.97139 26.3677C6.38893 24.4766 8.25075 22.2521 10.661 19.7983L11.1503 19.3047C13.6341 16.8209 15.8958 14.8926 17.8309 13.4153L18.2133 13.1258ZM30.2311 14.5341C26.9051 12.041 22.5947 12.041 19.2687 14.5341C17.3177 15.9966 14.9845 17.9595 12.3948 20.5492C9.80506 23.1389 7.84217 25.4721 6.37969 27.4231C3.88656 30.7491 3.88656 35.0596 6.37969 38.3855C7.84217 40.3366 9.80506 42.6698 12.3948 45.2595C14.9845 47.8492 17.3177 49.8121 19.2687 51.2746C22.5947 53.7677 26.9051 53.7677 30.2311 51.2746C32.1821 49.8121 34.5153 47.8492 37.105 45.2595C39.6947 42.6698 41.6576 40.3366 43.1201 38.3855C45.6132 35.0596 45.6132 30.7491 43.1201 27.4231C41.6576 25.4721 39.6947 23.1389 37.105 20.5492C34.5153 17.9595 32.1821 15.9966 30.2311 14.5341Z" fill="url(#paint5_linear_17753_58055)"/>
</g>
<g filter="url(#filter4_ii_17753_58055)">
<path d="M18.2133 13.1258C22.1649 10.1638 27.3349 10.1638 31.2865 13.1258C33.3037 14.6379 35.7002 16.6554 38.3495 19.3047C40.9989 21.9541 43.0164 24.3506 44.5284 26.3677C47.4905 30.3193 47.4905 35.4894 44.5284 39.441L44.2389 39.8234C42.7617 41.7585 40.8334 44.0201 38.3495 46.504C35.7002 49.1533 33.3037 51.1708 31.2865 52.6829L31.1001 52.8193C27.2358 55.599 22.2641 55.599 18.3997 52.8193L18.2133 52.6829C16.3222 51.2653 14.0976 49.4035 11.6439 46.9933L11.1503 46.504C8.50093 43.8546 6.48341 41.4581 4.97139 39.441C2.05564 35.5511 2.01035 30.4808 4.83496 26.5541L4.97139 26.3677C6.38893 24.4766 8.25075 22.2521 10.661 19.7983L11.1503 19.3047C13.6341 16.8209 15.8958 14.8926 17.8309 13.4153L18.2133 13.1258ZM30.2311 14.5341C26.9051 12.041 22.5947 12.041 19.2687 14.5341C17.3177 15.9966 14.9845 17.9595 12.3948 20.5492C9.80506 23.1389 7.84217 25.4721 6.37969 27.4231C3.88656 30.7491 3.88656 35.0596 6.37969 38.3855C7.84217 40.3366 9.80506 42.6698 12.3948 45.2595C14.9845 47.8492 17.3177 49.8121 19.2687 51.2746C22.5947 53.7677 26.9051 53.7677 30.2311 51.2746C32.1821 49.8121 34.5153 47.8492 37.105 45.2595C39.6947 42.6698 41.6576 40.3366 43.1201 38.3855C45.6132 35.0596 45.6132 30.7491 43.1201 27.4231C41.6576 25.4721 39.6947 23.1389 37.105 20.5492C34.5153 17.9595 32.1821 15.9966 30.2311 14.5341Z" fill="url(#paint6_linear_17753_58055)"/>
</g>
<g filter="url(#filter5_ii_17753_58055)">
<path d="M24.0618 0.500308C24.2786 -0.166768 25.2223 -0.16677 25.439 0.500306L25.8477 1.75804C25.9446 2.05637 26.2226 2.25835 26.5363 2.25835H27.8588C28.5602 2.25835 28.8518 3.15589 28.2844 3.56817L27.2145 4.34549C26.9607 4.52987 26.8545 4.85668 26.9515 5.15501L27.3601 6.41274C27.5769 7.07982 26.8134 7.63453 26.2459 7.22226L25.176 6.44493C24.9223 6.26056 24.5786 6.26056 24.3248 6.44493L23.255 7.22226C22.6875 7.63453 21.924 7.07982 22.1408 6.41274L22.5494 5.15501C22.6463 4.85668 22.5402 4.52987 22.2864 4.34549L21.2165 3.56817C20.649 3.15589 20.9407 2.25835 21.6421 2.25835H22.9645C23.2782 2.25835 23.5562 2.05637 23.6532 1.75804L24.0618 0.500308Z" fill="url(#paint7_linear_17753_58055)"/>
<path d="M15.3732 3.3964C15.59 2.72933 16.5337 2.72932 16.7504 3.3964L17.1591 4.65414C17.256 4.95246 17.534 5.15444 17.8477 5.15444H19.1702C19.8716 5.15444 20.1632 6.05199 19.5958 6.46426L18.5259 7.24159C18.2721 7.42596 18.1659 7.75278 18.2628 8.0511L18.6715 9.30884C18.8882 9.97591 18.1247 10.5306 17.5573 10.1184L16.4874 9.34103C16.2336 9.15665 15.89 9.15665 15.6362 9.34103L14.5663 10.1184C13.9989 10.5306 13.2354 9.97591 13.4521 9.30884L13.8608 8.0511C13.9577 7.75278 13.8515 7.42596 13.5978 7.24159L12.5279 6.46426C11.9604 6.05199 12.2521 5.15444 12.9535 5.15444H14.2759C14.5896 5.15444 14.8676 4.95246 14.9645 4.65414L15.3732 3.3964Z" fill="url(#paint8_linear_17753_58055)"/>
<path d="M32.7504 3.3964C32.9672 2.72933 33.9109 2.72932 34.1277 3.3964L34.5363 4.65414C34.6333 4.95246 34.9113 5.15444 35.2249 5.15444H36.5474C37.2488 5.15444 37.5404 6.05199 36.973 6.46426L35.9031 7.24159C35.6493 7.42596 35.5431 7.75278 35.6401 8.0511L36.0487 9.30884C36.2655 9.97591 35.502 10.5306 34.9345 10.1184L33.8646 9.34103C33.6109 9.15665 33.2672 9.15665 33.0135 9.34103L31.9436 10.1184C31.3761 10.5306 30.6126 9.97591 30.8294 9.30884L31.238 8.0511C31.335 7.75278 31.2288 7.42596 30.975 7.24159L29.9051 6.46426C29.3377 6.05199 29.6293 5.15444 30.3307 5.15444H31.6532C31.9668 5.15444 32.2448 4.95246 32.3418 4.65414L32.7504 3.3964Z" fill="url(#paint9_linear_17753_58055)"/>
</g>
<path d="M24.791 30.2344L24.7637 30.2139L22.2754 31.9707V29.9199L24.9209 28.04H26.7598V37.9043H24.791V30.2344Z" fill="black"/>
<defs>
<filter id="filter0_ii_17753_58055" x="13.75" y="43.3535" width="23.1" height="20.1705" filterUnits="userSpaceOnUse" color-interpolation-filters="sRGB">
<feFlood flood-opacity="0" result="BackgroundImageFix"/>
<feBlend mode="normal" in="SourceGraphic" in2="BackgroundImageFix" result="shape"/>
<feColorMatrix in="SourceAlpha" type="matrix" values="0 0 0 0 0 0 0 0 0 0 0 0 0 0 0 0 0 0 127 0" result="hardAlpha"/>
<feOffset dx="1.1"/>
<feGaussianBlur stdDeviation="0.715"/>
<feComposite in2="hardAlpha" operator="arithmetic" k2="-1" k3="1"/>
<feColorMatrix type="matrix" values="0 0 0 0 1 0 0 0 0 1 0 0 0 0 1 0 0 0 0.25 0"/>
<feBlend mode="normal" in2="shape" result="effect1_innerShadow_17753_58055"/>
<feColorMatrix in="SourceAlpha" type="matrix" values="0 0 0 0 0 0 0 0 0 0 0 0 0 0 0 0 0 0 127 0" result="hardAlpha"/>
<feOffset dx="0.55" dy="0.55"/>
<feGaussianBlur stdDeviation="0.22"/>
<feComposite in2="hardAlpha" operator="arithmetic" k2="-1" k3="1"/>
<feColorMatrix type="matrix" values="0 0 0 0 1 0 0 0 0 1 0 0 0 0 1 0 0 0 0.25 0"/>
<feBlend mode="normal" in2="effect1_innerShadow_17753_58055" result="effect2_innerShadow_17753_58055"/>
</filter>
<filter id="filter1_ii_17753_58055" x="18.1499" y="47.7539" width="14.3002" height="19.1822" filterUnits="userSpaceOnUse" color-interpolation-filters="sRGB">
<feFlood flood-opacity="0" result="BackgroundImageFix"/>
<feBlend mode="normal" in="SourceGraphic" in2="BackgroundImageFix" result="shape"/>
<feColorMatrix in="SourceAlpha" type="matrix" values="0 0 0 0 0 0 0 0 0 0 0 0 0 0 0 0 0 0 127 0" result="hardAlpha"/>
<feOffset dx="1.1"/>
<feGaussianBlur stdDeviation="0.715"/>
<feComposite in2="hardAlpha" operator="arithmetic" k2="-1" k3="1"/>
<feColorMatrix type="matrix" values="0 0 0 0 1 0 0 0 0 1 0 0 0 0 1 0 0 0 0.25 0"/>
<feBlend mode="normal" in2="shape" result="effect1_innerShadow_17753_58055"/>
<feColorMatrix in="SourceAlpha" type="matrix" values="0 0 0 0 0 0 0 0 0 0 0 0 0 0 0 0 0 0 127 0" result="hardAlpha"/>
<feOffset dx="0.55" dy="0.55"/>
<feGaussianBlur stdDeviation="0.22"/>
<feComposite in2="hardAlpha" operator="arithmetic" k2="-1" k3="1"/>
<feColorMatrix type="matrix" values="0 0 0 0 1 0 0 0 0 1 0 0 0 0 1 0 0 0 0.25 0"/>
<feBlend mode="normal" in2="effect1_innerShadow_17753_58055" result="effect2_innerShadow_17753_58055"/>
</filter>
<filter id="filter2_ii_17753_58055" x="0" y="41.1543" width="50.6" height="13.6392" filterUnits="userSpaceOnUse" color-interpolation-filters="sRGB">
<feFlood flood-opacity="0" result="BackgroundImageFix"/>
<feBlend mode="normal" in="SourceGraphic" in2="BackgroundImageFix" result="shape"/>
<feColorMatrix in="SourceAlpha" type="matrix" values="0 0 0 0 0 0 0 0 0 0 0 0 0 0 0 0 0 0 127 0" result="hardAlpha"/>
<feOffset dx="1.1"/>
<feGaussianBlur stdDeviation="0.715"/>
<feComposite in2="hardAlpha" operator="arithmetic" k2="-1" k3="1"/>
<feColorMatrix type="matrix" values="0 0 0 0 1 0 0 0 0 1 0 0 0 0 1 0 0 0 0.25 0"/>
<feBlend mode="normal" in2="shape" result="effect1_innerShadow_17753_58055"/>
<feColorMatrix in="SourceAlpha" type="matrix" values="0 0 0 0 0 0 0 0 0 0 0 0 0 0 0 0 0 0 127 0" result="hardAlpha"/>
<feOffset dx="0.55" dy="0.55"/>
<feGaussianBlur stdDeviation="0.22"/>
<feComposite in2="hardAlpha" operator="arithmetic" k2="-1" k3="1"/>
<feColorMatrix type="matrix" values="0 0 0 0 1 0 0 0 0 1 0 0 0 0 1 0 0 0 0.25 0"/>
<feBlend mode="normal" in2="effect1_innerShadow_17753_58055" result="effect2_innerShadow_17753_58055"/>
</filter>
<filter id="filter3_ii_17753_58055" x="2.75" y="10.9043" width="45.1" height="44.44" filterUnits="userSpaceOnUse" color-interpolation-filters="sRGB">
<feFlood flood-opacity="0" result="BackgroundImageFix"/>
<feBlend mode="normal" in="SourceGraphic" in2="BackgroundImageFix" result="shape"/>
<feColorMatrix in="SourceAlpha" type="matrix" values="0 0 0 0 0 0 0 0 0 0 0 0 0 0 0 0 0 0 127 0" result="hardAlpha"/>
<feOffset dx="1.1"/>
<feGaussianBlur stdDeviation="0.715"/>
<feComposite in2="hardAlpha" operator="arithmetic" k2="-1" k3="1"/>
<feColorMatrix type="matrix" values="0 0 0 0 1 0 0 0 0 1 0 0 0 0 1 0 0 0 0.25 0"/>
<feBlend mode="normal" in2="shape" result="effect1_innerShadow_17753_58055"/>
<feColorMatrix in="SourceAlpha" type="matrix" values="0 0 0 0 0 0 0 0 0 0 0 0 0 0 0 0 0 0 127 0" result="hardAlpha"/>
<feOffset dx="0.55" dy="0.55"/>
<feGaussianBlur stdDeviation="0.22"/>
<feComposite in2="hardAlpha" operator="arithmetic" k2="-1" k3="1"/>
<feColorMatrix type="matrix" values="0 0 0 0 1 0 0 0 0 1 0 0 0 0 1 0 0 0 0.25 0"/>
<feBlend mode="normal" in2="effect1_innerShadow_17753_58055" result="effect2_innerShadow_17753_58055"/>
</filter>
<filter id="filter4_ii_17753_58055" x="2.75" y="10.9043" width="45.1" height="44.44" filterUnits="userSpaceOnUse" color-interpolation-filters="sRGB">
<feFlood flood-opacity="0" result="BackgroundImageFix"/>
<feBlend mode="normal" in="SourceGraphic" in2="BackgroundImageFix" result="shape"/>
<feColorMatrix in="SourceAlpha" type="matrix" values="0 0 0 0 0 0 0 0 0 0 0 0 0 0 0 0 0 0 127 0" result="hardAlpha"/>
<feOffset dx="1.1"/>
<feGaussianBlur stdDeviation="0.715"/>
<feComposite in2="hardAlpha" operator="arithmetic" k2="-1" k3="1"/>
<feColorMatrix type="matrix" values="0 0 0 0 1 0 0 0 0 1 0 0 0 0 1 0 0 0 0.25 0"/>
<feBlend mode="normal" in2="shape" result="effect1_innerShadow_17753_58055"/>
<feColorMatrix in="SourceAlpha" type="matrix" values="0 0 0 0 0 0 0 0 0 0 0 0 0 0 0 0 0 0 127 0" result="hardAlpha"/>
<feOffset dx="0.55" dy="0.55"/>
<feGaussianBlur stdDeviation="0.22"/>
<feComposite in2="hardAlpha" operator="arithmetic" k2="-1" k3="1"/>
<feColorMatrix type="matrix" values="0 0 0 0 1 0 0 0 0 1 0 0 0 0 1 0 0 0 0.25 0"/>
<feBlend mode="normal" in2="effect1_innerShadow_17753_58055" result="effect2_innerShadow_17753_58055"/>
</filter>
<filter id="filter5_ii_17753_58055" x="12.228" y="0" width="26.1449" height="10.6998" filterUnits="userSpaceOnUse" color-interpolation-filters="sRGB">
<feFlood flood-opacity="0" result="BackgroundImageFix"/>
<feBlend mode="normal" in="SourceGraphic" in2="BackgroundImageFix" result="shape"/>
<feColorMatrix in="SourceAlpha" type="matrix" values="0 0 0 0 0 0 0 0 0 0 0 0 0 0 0 0 0 0 127 0" result="hardAlpha"/>
<feOffset dx="1.1"/>
<feGaussianBlur stdDeviation="0.715"/>
<feComposite in2="hardAlpha" operator="arithmetic" k2="-1" k3="1"/>
<feColorMatrix type="matrix" values="0 0 0 0 1 0 0 0 0 1 0 0 0 0 1 0 0 0 0.25 0"/>
<feBlend mode="normal" in2="shape" result="effect1_innerShadow_17753_58055"/>
<feColorMatrix in="SourceAlpha" type="matrix" values="0 0 0 0 0 0 0 0 0 0 0 0 0 0 0 0 0 0 127 0" result="hardAlpha"/>
<feOffset dx="0.55" dy="0.55"/>
<feGaussianBlur stdDeviation="0.22"/>
<feComposite in2="hardAlpha" operator="arithmetic" k2="-1" k3="1"/>
<feColorMatrix type="matrix" values="0 0 0 0 1 0 0 0 0 1 0 0 0 0 1 0 0 0 0.25 0"/>
<feBlend mode="normal" in2="effect1_innerShadow_17753_58055" result="effect2_innerShadow_17753_58055"/>
</filter>
<linearGradient id="paint0_linear_17753_58055" x1="24.75" y1="43.3535" x2="24.75" y2="64.2535" gradientUnits="userSpaceOnUse">
<stop stop-color="#FF698E"/>
<stop offset="1" stop-color="#FFA2A2"/>
</linearGradient>
<linearGradient id="paint1_linear_17753_58055" x1="24.7499" y1="47.7539" x2="24.7499" y2="68.6539" gradientUnits="userSpaceOnUse">
<stop stop-color="#FF698E"/>
<stop offset="1" stop-color="#FFA2A2"/>
</linearGradient>
<linearGradient id="paint2_linear_17753_58055" x1="24.75" y1="41.1543" x2="24.75" y2="54.3542" gradientUnits="userSpaceOnUse">
<stop stop-color="#FF698E"/>
<stop offset="1" stop-color="#FFA2A2"/>
</linearGradient>
<linearGradient id="paint3_linear_17753_58055" x1="24.75" y1="41.1543" x2="24.75" y2="54.3542" gradientUnits="userSpaceOnUse">
<stop stop-color="#FF698E"/>
<stop offset="1" stop-color="#FFA2A2"/>
</linearGradient>
<linearGradient id="paint4_linear_17753_58055" x1="24.75" y1="10.9043" x2="24.75" y2="54.9043" gradientUnits="userSpaceOnUse">
<stop offset="0.5" stop-color="#F5A8BB" stop-opacity="0"/>
<stop offset="1" stop-color="#F5A8BB"/>
</linearGradient>
<linearGradient id="paint5_linear_17753_58055" x1="24.75" y1="10.9043" x2="24.75" y2="54.9041" gradientUnits="userSpaceOnUse">
<stop/>
<stop offset="1" stop-color="#A0A0A0"/>
</linearGradient>
<linearGradient id="paint6_linear_17753_58055" x1="24.75" y1="10.9043" x2="24.75" y2="54.9041" gradientUnits="userSpaceOnUse">
<stop stop-color="#FF698E"/>
<stop offset="1" stop-color="#FF7D7D"/>
</linearGradient>
<linearGradient id="paint7_linear_17753_58055" x1="24.7504" y1="0" x2="24.7504" y2="10.2599" gradientUnits="userSpaceOnUse">
<stop stop-color="#FF698E"/>
<stop offset="1" stop-color="#FFA2A2"/>
</linearGradient>
<linearGradient id="paint8_linear_17753_58055" x1="24.7504" y1="0" x2="24.7504" y2="10.2599" gradientUnits="userSpaceOnUse">
<stop stop-color="#FF698E"/>
<stop offset="1" stop-color="#FFA2A2"/>
</linearGradient>
<linearGradient id="paint9_linear_17753_58055" x1="24.7504" y1="0" x2="24.7504" y2="10.2599" gradientUnits="userSpaceOnUse">
<stop stop-color="#FF698E"/>
<stop offset="1" stop-color="#FFA2A2"/>
</linearGradient>
</defs>
</svg>
