<svg width="44" height="44" viewBox="0 0 44 44" fill="none" xmlns="http://www.w3.org/2000/svg">
<g filter="url(#filter0_i_17753_58082)">
<path d="M15.4634 2.22157C19.415 -0.740521 24.585 -0.740522 28.5366 2.22157C30.5538 3.73359 32.9503 5.75096 35.5997 8.40032C38.249 11.0497 40.2664 13.4462 41.7784 15.4634C44.7405 19.415 44.7405 24.585 41.7784 28.5366C40.2664 30.5538 38.249 32.9503 35.5997 35.5997C32.9503 38.249 30.5538 40.2664 28.5366 41.7784C24.585 44.7405 19.415 44.7405 15.4634 41.7784C13.4462 40.2664 11.0497 38.249 8.40032 35.5997C5.75096 32.9503 3.73359 30.5538 2.22157 28.5366C-0.740521 24.585 -0.740522 19.415 2.22156 15.4634C3.73359 13.4462 5.75096 11.0497 8.40032 8.40032C11.0497 5.75096 13.4462 3.73359 15.4634 2.22157Z" fill="white"/>
</g>
<path d="M22.123 27.1709C21.5671 27.1709 21.0612 27.0957 20.6055 26.9453C20.1543 26.7949 19.7669 26.5853 19.4434 26.3164C19.1198 26.043 18.8669 25.7171 18.6846 25.3389C18.5068 24.9606 18.4111 24.5436 18.3975 24.0879H20.332C20.373 24.5345 20.5508 24.8786 20.8652 25.1201C21.1842 25.3571 21.6286 25.4756 22.1982 25.4756C22.7451 25.4756 23.1576 25.3503 23.4355 25.0996C23.7135 24.8444 23.8525 24.5072 23.8525 24.0879C23.8525 23.8828 23.8161 23.696 23.7432 23.5273C23.6748 23.3542 23.5723 23.2061 23.4355 23.083C23.3034 22.96 23.137 22.8643 22.9365 22.7959C22.7406 22.7275 22.5127 22.6934 22.2529 22.6934H20.9131V21.1621H22.1436C22.6403 21.1621 23.0094 21.055 23.251 20.8408C23.4971 20.6221 23.6201 20.319 23.6201 19.9316C23.6201 19.5488 23.4971 19.2389 23.251 19.002C23.0049 18.765 22.6403 18.6465 22.1572 18.6465C21.6605 18.6465 21.2708 18.7604 20.9883 18.9883C20.7057 19.2116 20.5348 19.5374 20.4756 19.9658H18.541C18.5501 19.5238 18.6436 19.1182 18.8213 18.749C18.999 18.3799 19.2451 18.0632 19.5596 17.7988C19.874 17.5345 20.25 17.3294 20.6875 17.1836C21.125 17.0378 21.6104 16.9648 22.1436 16.9648C22.654 16.9648 23.1143 17.0309 23.5244 17.1631C23.9346 17.2952 24.2855 17.4775 24.5771 17.71C24.8688 17.9378 25.0921 18.209 25.2471 18.5234C25.4066 18.8379 25.4863 19.1797 25.4863 19.5488C25.4863 20.0866 25.3451 20.5492 25.0625 20.9365C24.7799 21.3193 24.363 21.6064 23.8115 21.7979V21.8389C24.167 21.9482 24.4701 22.085 24.7207 22.249C24.9714 22.4085 25.1742 22.5908 25.3291 22.7959C25.4886 22.9964 25.6048 23.2174 25.6777 23.459C25.7507 23.7005 25.7871 23.9535 25.7871 24.2178C25.7871 24.6553 25.6982 25.0563 25.5205 25.4209C25.3428 25.7809 25.0921 26.0908 24.7686 26.3506C24.445 26.6104 24.0576 26.8132 23.6064 26.959C23.1598 27.1003 22.6654 27.1709 22.123 27.1709Z" fill="#80808E"/>
<g filter="url(#filter1_ii_17753_58082)">
<path d="M15.4633 2.22153C19.4149 -0.740511 24.5849 -0.740511 28.5365 2.22153C30.5537 3.73355 32.9502 5.75108 35.5995 8.40044C38.2489 11.0498 40.2664 13.4463 41.7784 15.4634C44.7405 19.415 44.7405 24.5851 41.7784 28.5367L41.4889 28.9191C40.0117 30.8542 38.0834 33.1158 35.5995 35.5997C32.9502 38.249 30.5537 40.2665 28.5365 41.7786L28.3501 41.915C24.4858 44.6947 19.5141 44.6947 15.6497 41.915L15.4633 41.7786C13.5722 40.361 11.3476 38.4992 8.8939 36.089L8.40029 35.5997C5.75093 32.9503 3.73341 30.5538 2.22139 28.5367C-0.694364 24.6468 -0.739647 19.5765 2.08496 15.6498L2.22139 15.4634C3.63893 13.5723 5.50075 11.3478 7.91099 8.89404L8.40029 8.40044C10.8841 5.9166 13.1458 3.98825 15.0809 2.51104L15.4633 2.22153ZM27.4811 3.62983C24.1551 1.13671 19.8447 1.13671 16.5187 3.62983C14.5677 5.09231 12.2345 7.0552 9.64478 9.64492C7.05506 12.2346 5.09217 14.5678 3.62969 16.5188C1.13656 19.8448 1.13656 24.1553 3.62969 27.4812C5.09217 29.4323 7.05506 31.7655 9.64478 34.3552C12.2345 36.9449 14.5677 38.9078 16.5187 40.3703C19.8447 42.8634 24.1551 42.8634 27.4811 40.3703C29.4321 38.9078 31.7653 36.9449 34.355 34.3552C36.9447 31.7655 38.9076 29.4323 40.3701 27.4812C42.8632 24.1553 42.8632 19.8448 40.3701 16.5188C38.9076 14.5678 36.9447 12.2346 34.355 9.64492C31.7653 7.05521 29.4321 5.09231 27.4811 3.62983Z" fill="url(#paint0_linear_17753_58082)"/>
</g>
<path d="M15.4633 2.22153C19.4149 -0.740511 24.5849 -0.740511 28.5365 2.22153C30.5537 3.73355 32.9502 5.75108 35.5995 8.40044C38.2489 11.0498 40.2664 13.4463 41.7784 15.4634C44.7405 19.415 44.7405 24.5851 41.7784 28.5367L41.4889 28.9191C40.0117 30.8542 38.0834 33.1158 35.5995 35.5997C32.9502 38.249 30.5537 40.2665 28.5365 41.7786L28.3501 41.915C24.4858 44.6947 19.5141 44.6947 15.6497 41.915L15.4633 41.7786C13.5722 40.361 11.3476 38.4992 8.8939 36.089L8.40029 35.5997C5.75093 32.9503 3.73341 30.5538 2.22139 28.5367C-0.694364 24.6468 -0.739647 19.5765 2.08496 15.6498L2.22139 15.4634C3.63893 13.5723 5.50075 11.3478 7.91099 8.89404L8.40029 8.40044C10.8841 5.9166 13.1458 3.98825 15.0809 2.51104L15.4633 2.22153ZM27.4811 3.62983C24.1551 1.13671 19.8447 1.13671 16.5187 3.62983C14.5677 5.09231 12.2345 7.0552 9.64478 9.64492C7.05506 12.2346 5.09217 14.5678 3.62969 16.5188C1.13656 19.8448 1.13656 24.1553 3.62969 27.4812C5.09217 29.4323 7.05506 31.7655 9.64478 34.3552C12.2345 36.9449 14.5677 38.9078 16.5187 40.3703C19.8447 42.8634 24.1551 42.8634 27.4811 40.3703C29.4321 38.9078 31.7653 36.9449 34.355 34.3552C36.9447 31.7655 38.9076 29.4323 40.3701 27.4812C42.8632 24.1553 42.8632 19.8448 40.3701 16.5188C38.9076 14.5678 36.9447 12.2346 34.355 9.64492C31.7653 7.05521 29.4321 5.09231 27.4811 3.62983Z" fill="#F2F3F5"/>
<defs>
<filter id="filter0_i_17753_58082" x="0" y="0" width="50.468" height="50.468" filterUnits="userSpaceOnUse" color-interpolation-filters="sRGB">
<feFlood flood-opacity="0" result="BackgroundImageFix"/>
<feBlend mode="normal" in="SourceGraphic" in2="BackgroundImageFix" result="shape"/>
<feColorMatrix in="SourceAlpha" type="matrix" values="0 0 0 0 0 0 0 0 0 0 0 0 0 0 0 0 0 0 127 0" result="hardAlpha"/>
<feOffset dx="8.8" dy="8.8"/>
<feGaussianBlur stdDeviation="3.234"/>
<feComposite in2="hardAlpha" operator="arithmetic" k2="-1" k3="1"/>
<feColorMatrix type="matrix" values="0 0 0 0 1 0 0 0 0 1 0 0 0 0 1 0 0 0 0.25 0"/>
<feBlend mode="normal" in2="shape" result="effect1_innerShadow_17753_58082"/>
</filter>
<filter id="filter1_ii_17753_58082" x="0" y="0" width="45.1" height="44.44" filterUnits="userSpaceOnUse" color-interpolation-filters="sRGB">
<feFlood flood-opacity="0" result="BackgroundImageFix"/>
<feBlend mode="normal" in="SourceGraphic" in2="BackgroundImageFix" result="shape"/>
<feColorMatrix in="SourceAlpha" type="matrix" values="0 0 0 0 0 0 0 0 0 0 0 0 0 0 0 0 0 0 127 0" result="hardAlpha"/>
<feOffset dx="1.1"/>
<feGaussianBlur stdDeviation="0.715"/>
<feComposite in2="hardAlpha" operator="arithmetic" k2="-1" k3="1"/>
<feColorMatrix type="matrix" values="0 0 0 0 1 0 0 0 0 1 0 0 0 0 1 0 0 0 0.25 0"/>
<feBlend mode="normal" in2="shape" result="effect1_innerShadow_17753_58082"/>
<feColorMatrix in="SourceAlpha" type="matrix" values="0 0 0 0 0 0 0 0 0 0 0 0 0 0 0 0 0 0 127 0" result="hardAlpha"/>
<feOffset dx="0.55" dy="0.55"/>
<feGaussianBlur stdDeviation="0.22"/>
<feComposite in2="hardAlpha" operator="arithmetic" k2="-1" k3="1"/>
<feColorMatrix type="matrix" values="0 0 0 0 1 0 0 0 0 1 0 0 0 0 1 0 0 0 0.25 0"/>
<feBlend mode="normal" in2="effect1_innerShadow_17753_58082" result="effect2_innerShadow_17753_58082"/>
</filter>
<linearGradient id="paint0_linear_17753_58082" x1="22" y1="0" x2="22" y2="43.9998" gradientUnits="userSpaceOnUse">
<stop/>
<stop offset="1" stop-color="#A0A0A0"/>
</linearGradient>
</defs>
</svg>
