<svg width="335" height="226" viewBox="0 0 335 226" fill="none" xmlns="http://www.w3.org/2000/svg">
<g filter="url(#filter0_i_17748_18147)">
<path d="M136.5 105.5L167 67L204 105.5V171.5L136.5 159.5V105.5Z" fill="url(#paint0_radial_17748_18147)"/>
</g>
<path d="M211.807 182L239.5 96.7113L167 44L94.5 96.7113L122.193 182H211.807ZM167 44V66M239.5 96.7113L216.5 101.905M211.807 182L197.593 160M122.193 182L136.407 160M94.5 96.7113L117.5 101.905M167 66L216.5 101.905M167 66L117.5 101.905M167 66V88M216.5 101.905L197.593 160M216.5 101.905L193.5 107.098M197.593 160H136.407M197.593 160L183.378 138M136.407 160L117.5 101.905M136.407 160L150.622 138M117.5 101.905L140.5 107.098M167 88L193.5 107.098M167 88L140.5 107.098M193.5 107.098L183.378 138M183.378 138H150.622M150.622 138L140.5 107.098" stroke="black"/>
<path d="M25.7607 96.8721C25.9521 96.6214 26.1071 96.3639 26.2256 96.0996C26.3486 95.8307 26.4466 95.5231 26.5195 95.1768C26.597 94.8304 26.654 94.4294 26.6904 93.9736C26.7314 93.5179 26.7656 92.9756 26.793 92.3467L26.9912 88.1357H33.499V96.8721H34.6201V100.119H33.458V98H25.9658V100.119H24.8037V96.8721H25.7607ZM32.2686 89.2637H28.1123L27.9756 92.21C27.9482 92.8298 27.9141 93.3766 27.873 93.8506C27.8366 94.32 27.7842 94.737 27.7158 95.1016C27.652 95.4661 27.5677 95.7897 27.4629 96.0723C27.3581 96.3503 27.2259 96.6077 27.0664 96.8447V96.8721H32.2686V89.2637ZM39.1455 98.1162C38.6351 98.1162 38.1725 98.0296 37.7578 97.8564C37.3431 97.6833 36.9876 97.4372 36.6914 97.1182C36.3997 96.7946 36.1742 96.4072 36.0146 95.9561C35.8551 95.5049 35.7754 94.999 35.7754 94.4385V94.1719C35.7754 93.6159 35.8529 93.1123 36.0078 92.6611C36.1628 92.21 36.3838 91.8271 36.6709 91.5127C36.958 91.1937 37.3021 90.9476 37.7031 90.7744C38.1042 90.6012 38.5508 90.5146 39.043 90.5146C39.5352 90.5146 39.9818 90.5944 40.3828 90.7539C40.7839 90.9134 41.1257 91.1458 41.4082 91.4512C41.6908 91.7565 41.9072 92.1325 42.0576 92.5791C42.2126 93.0257 42.29 93.5361 42.29 94.1104V94.7188H37.0264C37.04 95.0833 37.1016 95.4092 37.2109 95.6963C37.3203 95.9788 37.4661 96.2204 37.6484 96.4209C37.8353 96.6169 38.0586 96.7673 38.3184 96.8721C38.5781 96.9769 38.8652 97.0293 39.1797 97.0293C39.5944 97.0293 39.9521 96.9382 40.2529 96.7559C40.5583 96.5736 40.7884 96.3184 40.9434 95.9902H42.1875C42.0872 96.3138 41.9414 96.6077 41.75 96.8721C41.5632 97.1318 41.3376 97.3551 41.0732 97.542C40.8135 97.7243 40.5195 97.8656 40.1914 97.9658C39.8678 98.0661 39.5192 98.1162 39.1455 98.1162ZM41.0391 93.7207C40.998 93.0098 40.8066 92.4788 40.4648 92.1279C40.1276 91.777 39.6628 91.6016 39.0703 91.6016C38.7832 91.6016 38.5189 91.6494 38.2773 91.7451C38.0404 91.8408 37.833 91.9798 37.6553 92.1621C37.4821 92.3444 37.3408 92.5677 37.2314 92.832C37.1266 93.0918 37.0605 93.388 37.0332 93.7207H41.0391ZM47.0889 98.1094C46.5739 98.1094 46.1068 98.0273 45.6875 97.8633C45.2728 97.6992 44.9173 97.4463 44.6211 97.1045C44.3249 96.7581 44.097 96.3206 43.9375 95.792C43.778 95.2588 43.6982 94.6253 43.6982 93.8916V93.6797C43.6982 92.9141 43.7301 92.2487 43.7939 91.6836C43.8577 91.1139 43.958 90.624 44.0947 90.2139C44.2314 89.8037 44.4046 89.4642 44.6143 89.1953C44.8239 88.9219 45.0723 88.6986 45.3594 88.5254C45.6784 88.334 45.9951 88.2041 46.3096 88.1357C46.6286 88.0628 46.9635 88.0104 47.3145 87.9785C47.6654 87.9421 48.0391 87.9056 48.4355 87.8691C48.832 87.8281 49.2695 87.7484 49.748 87.6299V88.6963C49.388 88.7874 49.028 88.849 48.668 88.8809C48.3125 88.9082 47.9661 88.9378 47.6289 88.9697C47.2962 89.0016 46.9772 89.0495 46.6719 89.1133C46.3711 89.1771 46.0954 89.2865 45.8447 89.4414C45.7126 89.5234 45.585 89.6374 45.4619 89.7832C45.3389 89.929 45.2272 90.1136 45.127 90.3369C45.0312 90.5602 44.9492 90.8268 44.8809 91.1367C44.8171 91.4421 44.7715 91.7998 44.7441 92.21L44.792 92.2305C45.1338 91.7064 45.5189 91.335 45.9473 91.1162C46.3757 90.8975 46.8337 90.7881 47.3213 90.7881C47.7816 90.7881 48.2031 90.8678 48.5859 91.0273C48.9733 91.1868 49.306 91.4147 49.584 91.7109C49.8665 92.0072 50.0853 92.3672 50.2402 92.791C50.3952 93.2148 50.4727 93.6911 50.4727 94.2197V94.3906C50.4727 94.9694 50.3906 95.4889 50.2266 95.9492C50.0671 96.4049 49.8369 96.7946 49.5361 97.1182C49.2399 97.4372 48.8844 97.6833 48.4697 97.8564C48.055 98.0251 47.5947 98.1094 47.0889 98.1094ZM47.0752 97.0498C47.4033 97.0498 47.6995 96.9951 47.9639 96.8857C48.2327 96.7764 48.4606 96.6146 48.6475 96.4004C48.8389 96.1816 48.9847 95.9105 49.085 95.5869C49.1898 95.2633 49.2422 94.8874 49.2422 94.459V94.2881C49.2422 93.9053 49.1898 93.5635 49.085 93.2627C48.9801 92.9619 48.832 92.709 48.6406 92.5039C48.4492 92.2943 48.2191 92.137 47.9502 92.0322C47.6859 91.9229 47.3942 91.8682 47.0752 91.8682C46.7562 91.8682 46.4622 91.9229 46.1934 92.0322C45.929 92.137 45.7012 92.2943 45.5098 92.5039C45.3184 92.709 45.1702 92.9619 45.0654 93.2627C44.9606 93.5635 44.9082 93.9053 44.9082 94.2881V94.459C44.9082 94.8874 44.9583 95.2633 45.0586 95.5869C45.1634 95.9105 45.3092 96.1816 45.4961 96.4004C45.6875 96.6146 45.9154 96.7764 46.1797 96.8857C46.4486 96.9951 46.7471 97.0498 47.0752 97.0498ZM57.9102 98.1162C57.4453 98.1162 57.0215 98.0387 56.6387 97.8838C56.2604 97.7243 55.93 97.501 55.6475 97.2139C55.3695 96.9222 55.1462 96.5713 54.9775 96.1611C54.8089 95.751 54.7087 95.2907 54.6768 94.7803H53.5352V98H52.3525V90.6309H53.5352V93.6934H54.6904C54.736 93.2057 54.8454 92.766 55.0186 92.374C55.1917 91.9821 55.4173 91.6494 55.6953 91.376C55.9733 91.098 56.2992 90.8861 56.6729 90.7402C57.0465 90.5898 57.459 90.5146 57.9102 90.5146C58.4069 90.5146 58.8558 90.6035 59.2568 90.7812C59.6579 90.9544 59.9997 91.2028 60.2822 91.5264C60.5693 91.8499 60.7904 92.2419 60.9453 92.7021C61.1003 93.1579 61.1777 93.6683 61.1777 94.2334V94.3975C61.1777 94.9626 61.1003 95.4753 60.9453 95.9355C60.7904 96.3913 60.5693 96.7809 60.2822 97.1045C59.9997 97.4281 59.6579 97.6787 59.2568 97.8564C58.8558 98.0296 58.4069 98.1162 57.9102 98.1162ZM57.9102 97.0361C58.2292 97.0361 58.514 96.9769 58.7646 96.8584C59.0153 96.7399 59.2272 96.569 59.4004 96.3457C59.5736 96.1178 59.7057 95.8398 59.7969 95.5117C59.888 95.1836 59.9336 94.8122 59.9336 94.3975V94.2334C59.9336 93.8187 59.888 93.4473 59.7969 93.1191C59.7057 92.791 59.5736 92.5153 59.4004 92.292C59.2272 92.0641 59.0153 91.891 58.7646 91.7725C58.514 91.654 58.2292 91.5947 57.9102 91.5947C57.5911 91.5947 57.3063 91.654 57.0557 91.7725C56.805 91.891 56.5931 92.0641 56.4199 92.292C56.2467 92.5153 56.1146 92.791 56.0234 93.1191C55.9323 93.4473 55.8867 93.8187 55.8867 94.2334V94.3975C55.8867 94.8122 55.9323 95.1836 56.0234 95.5117C56.1146 95.8398 56.2467 96.1178 56.4199 96.3457C56.5931 96.569 56.805 96.7399 57.0557 96.8584C57.3063 96.9769 57.5911 97.0361 57.9102 97.0361ZM62.1006 91.7178V90.6309H68.2461V91.7178H65.7646V98H64.582V91.7178H62.1006ZM75.834 89.5645H75.7861L73.0996 91.2871V89.9268L75.9023 88.1357H77.0303V98H75.834V89.5645Z" fill="#80808E"/>
<path d="M144.666 21.1357H146.122L149.909 31H148.59L147.605 28.334H143.114L142.13 31H140.886L144.666 21.1357ZM147.188 27.2061L145.377 22.3047H145.343L143.531 27.2061H147.188ZM150.142 24.7178V23.6309H156.287V24.7178H153.806V31H152.623V24.7178H150.142ZM159.753 31.1094C159.375 31.1094 159.035 31.0524 158.734 30.9385C158.434 30.8245 158.176 30.665 157.962 30.46C157.748 30.2549 157.584 30.0111 157.47 29.7285C157.356 29.4414 157.299 29.127 157.299 28.7852C157.299 28.4069 157.363 28.0856 157.49 27.8213C157.618 27.557 157.782 27.3405 157.982 27.1719C158.188 26.9987 158.415 26.8665 158.666 26.7754C158.921 26.6797 159.172 26.6113 159.418 26.5703C159.664 26.5247 159.894 26.4974 160.108 26.4883C160.323 26.4792 160.496 26.4746 160.628 26.4746H162.193V26.1396C162.193 26.0758 162.189 25.9915 162.18 25.8867C162.175 25.7819 162.155 25.6725 162.118 25.5586C162.086 25.4447 162.036 25.3307 161.968 25.2168C161.899 25.0983 161.804 24.9935 161.681 24.9023C161.558 24.8066 161.4 24.7292 161.209 24.6699C161.022 24.6107 160.792 24.5811 160.519 24.5811C159.543 24.5811 158.976 24.9525 158.816 25.6953H157.606C157.652 25.3535 157.748 25.0482 157.894 24.7793C158.044 24.5104 158.242 24.2826 158.488 24.0957C158.734 23.9043 159.024 23.7607 159.356 23.665C159.694 23.5648 160.072 23.5146 160.491 23.5146C160.961 23.5146 161.359 23.5716 161.688 23.6855C162.016 23.7995 162.285 23.9453 162.494 24.123C162.708 24.3008 162.875 24.499 162.993 24.7178C163.112 24.9365 163.198 25.153 163.253 25.3672C163.312 25.5768 163.346 25.7705 163.355 25.9482C163.369 26.126 163.376 26.265 163.376 26.3652V29.1885C163.376 29.3617 163.39 29.4984 163.417 29.5986C163.444 29.6989 163.488 29.7741 163.547 29.8242C163.611 29.8743 163.693 29.9062 163.793 29.9199C163.893 29.9336 164.016 29.9404 164.162 29.9404V31H163.588C163.342 31 163.137 30.9658 162.973 30.8975C162.809 30.8291 162.676 30.7402 162.576 30.6309C162.476 30.5169 162.405 30.3916 162.364 30.2549C162.323 30.1136 162.303 29.9701 162.303 29.8242H162.275C162.048 30.248 161.719 30.5693 161.291 30.7881C160.863 31.0023 160.35 31.1094 159.753 31.1094ZM159.938 30.0566C160.257 30.0566 160.553 30.0042 160.826 29.8994C161.104 29.7946 161.343 29.6488 161.544 29.4619C161.749 29.2751 161.909 29.0518 162.022 28.792C162.136 28.5277 162.193 28.2383 162.193 27.9238V27.4932H160.71C160.587 27.4932 160.446 27.4954 160.286 27.5C160.131 27.5046 159.972 27.5205 159.808 27.5479C159.648 27.5706 159.491 27.6094 159.336 27.6641C159.181 27.7142 159.042 27.7848 158.919 27.876C158.796 27.9671 158.698 28.0833 158.625 28.2246C158.552 28.3659 158.516 28.5391 158.516 28.7441C158.516 28.9219 158.545 29.0905 158.604 29.25C158.668 29.4095 158.759 29.5508 158.878 29.6738C159.001 29.7923 159.151 29.8857 159.329 29.9541C159.507 30.0225 159.71 30.0566 159.938 30.0566ZM166.924 23.6309V26.625H167.218L170.123 23.6309H171.729L168.195 27.1035L172.03 31H170.321L167.218 27.7119H166.924V31H165.741V23.6309H166.924ZM175.12 31.1094C174.742 31.1094 174.402 31.0524 174.102 30.9385C173.801 30.8245 173.543 30.665 173.329 30.46C173.115 30.2549 172.951 30.0111 172.837 29.7285C172.723 29.4414 172.666 29.127 172.666 28.7852C172.666 28.4069 172.73 28.0856 172.857 27.8213C172.985 27.557 173.149 27.3405 173.35 27.1719C173.555 26.9987 173.783 26.8665 174.033 26.7754C174.288 26.6797 174.539 26.6113 174.785 26.5703C175.031 26.5247 175.261 26.4974 175.476 26.4883C175.69 26.4792 175.863 26.4746 175.995 26.4746H177.561V26.1396C177.561 26.0758 177.556 25.9915 177.547 25.8867C177.542 25.7819 177.522 25.6725 177.485 25.5586C177.453 25.4447 177.403 25.3307 177.335 25.2168C177.267 25.0983 177.171 24.9935 177.048 24.9023C176.925 24.8066 176.768 24.7292 176.576 24.6699C176.389 24.6107 176.159 24.5811 175.886 24.5811C174.91 24.5811 174.343 24.9525 174.184 25.6953H172.974C173.019 25.3535 173.115 25.0482 173.261 24.7793C173.411 24.5104 173.609 24.2826 173.855 24.0957C174.102 23.9043 174.391 23.7607 174.724 23.665C175.061 23.5648 175.439 23.5146 175.858 23.5146C176.328 23.5146 176.727 23.5716 177.055 23.6855C177.383 23.7995 177.652 23.9453 177.861 24.123C178.076 24.3008 178.242 24.499 178.36 24.7178C178.479 24.9365 178.565 25.153 178.62 25.3672C178.679 25.5768 178.714 25.7705 178.723 25.9482C178.736 26.126 178.743 26.265 178.743 26.3652V29.1885C178.743 29.3617 178.757 29.4984 178.784 29.5986C178.812 29.6989 178.855 29.7741 178.914 29.8242C178.978 29.8743 179.06 29.9062 179.16 29.9199C179.26 29.9336 179.383 29.9404 179.529 29.9404V31H178.955C178.709 31 178.504 30.9658 178.34 30.8975C178.176 30.8291 178.044 30.7402 177.943 30.6309C177.843 30.5169 177.772 30.3916 177.731 30.2549C177.69 30.1136 177.67 29.9701 177.67 29.8242H177.643C177.415 30.248 177.087 30.5693 176.658 30.7881C176.23 31.0023 175.717 31.1094 175.12 31.1094ZM175.305 30.0566C175.624 30.0566 175.92 30.0042 176.193 29.8994C176.471 29.7946 176.711 29.6488 176.911 29.4619C177.116 29.2751 177.276 29.0518 177.39 28.792C177.504 28.5277 177.561 28.2383 177.561 27.9238V27.4932H176.077C175.954 27.4932 175.813 27.4954 175.653 27.5C175.498 27.5046 175.339 27.5205 175.175 27.5479C175.015 27.5706 174.858 27.6094 174.703 27.6641C174.548 27.7142 174.409 27.7848 174.286 27.876C174.163 27.9671 174.065 28.0833 173.992 28.2246C173.919 28.3659 173.883 28.5391 173.883 28.7441C173.883 28.9219 173.912 29.0905 173.972 29.25C174.035 29.4095 174.127 29.5508 174.245 29.6738C174.368 29.7923 174.519 29.8857 174.696 29.9541C174.874 30.0225 175.077 30.0566 175.305 30.0566ZM188.184 31.1162C187.751 31.1162 187.347 31.0615 186.974 30.9521C186.6 30.8428 186.265 30.6833 185.969 30.4736C185.677 30.2594 185.426 29.9951 185.217 29.6807C185.012 29.3662 184.861 29.0062 184.766 28.6006H186.064C186.224 29.0745 186.486 29.4255 186.851 29.6533C187.215 29.8766 187.66 29.9883 188.184 29.9883C188.525 29.9883 188.833 29.9404 189.106 29.8447C189.384 29.7445 189.621 29.5986 189.817 29.4072C190.018 29.2158 190.171 28.9811 190.275 28.7031C190.385 28.4251 190.439 28.1061 190.439 27.7461C190.439 27.0215 190.246 26.4678 189.858 26.085C189.471 25.6976 188.936 25.5039 188.252 25.5039C187.997 25.5039 187.764 25.529 187.555 25.5791C187.35 25.6292 187.163 25.6999 186.994 25.791C186.83 25.8776 186.684 25.9824 186.557 26.1055C186.434 26.224 186.326 26.3538 186.235 26.4951H185.066L185.524 21.1357H191.219V22.2637H186.611L186.345 25.2305H186.406C186.689 24.9297 187.001 24.7132 187.343 24.5811C187.689 24.4489 188.065 24.3828 188.471 24.3828C188.926 24.3828 189.35 24.4648 189.742 24.6289C190.134 24.7884 190.471 25.0163 190.754 25.3125C191.041 25.6042 191.264 25.9574 191.424 26.3721C191.588 26.7868 191.67 27.2471 191.67 27.7529C191.67 28.2633 191.583 28.7259 191.41 29.1406C191.242 29.5553 191.002 29.9085 190.692 30.2002C190.387 30.4919 190.02 30.7174 189.592 30.877C189.168 31.0365 188.699 31.1162 188.184 31.1162Z" fill="#80808E"/>
<path d="M45.082 196.264V195.136H53.0801V196.264H49.6963V205H48.4658V196.264H45.082ZM56.5527 205.116C56.0378 205.116 55.5706 205.03 55.1514 204.856C54.7321 204.679 54.3743 204.428 54.0781 204.104C53.7819 203.781 53.5518 203.391 53.3877 202.936C53.2282 202.475 53.1484 201.963 53.1484 201.397V201.233C53.1484 200.668 53.2282 200.158 53.3877 199.702C53.5518 199.242 53.7819 198.85 54.0781 198.526C54.3743 198.203 54.7321 197.954 55.1514 197.781C55.5706 197.604 56.0378 197.515 56.5527 197.515C57.0677 197.515 57.5348 197.604 57.9541 197.781C58.3734 197.954 58.7311 198.203 59.0273 198.526C59.3236 198.85 59.5514 199.242 59.7109 199.702C59.875 200.158 59.957 200.668 59.957 201.233V201.397C59.957 201.963 59.875 202.475 59.7109 202.936C59.5514 203.391 59.3236 203.781 59.0273 204.104C58.7311 204.428 58.3734 204.679 57.9541 204.856C57.5348 205.03 57.0677 205.116 56.5527 205.116ZM56.5527 204.029C56.8945 204.029 57.1976 203.97 57.4619 203.852C57.7308 203.733 57.9564 203.562 58.1387 203.339C58.3255 203.111 58.4668 202.835 58.5625 202.512C58.6628 202.184 58.7129 201.812 58.7129 201.397V201.233C58.7129 200.819 58.6628 200.447 58.5625 200.119C58.4668 199.791 58.3255 199.515 58.1387 199.292C57.9564 199.064 57.7308 198.891 57.4619 198.772C57.1976 198.654 56.8945 198.595 56.5527 198.595C56.2109 198.595 55.9056 198.654 55.6367 198.772C55.3724 198.891 55.1468 199.064 54.96 199.292C54.7777 199.515 54.6364 199.791 54.5361 200.119C54.4404 200.447 54.3926 200.819 54.3926 201.233V201.397C54.3926 201.812 54.4404 202.184 54.5361 202.512C54.6364 202.835 54.7777 203.111 54.96 203.339C55.1468 203.562 55.3724 203.733 55.6367 203.852C55.9056 203.97 56.2109 204.029 56.5527 204.029ZM65.9863 202.375C65.7038 202.443 65.4212 202.498 65.1387 202.539C64.8607 202.576 64.585 202.594 64.3115 202.594C63.9242 202.594 63.5596 202.55 63.2178 202.464C62.876 202.373 62.5775 202.225 62.3223 202.02C62.0671 201.814 61.8643 201.546 61.7139 201.213C61.568 200.876 61.4951 200.461 61.4951 199.969V197.631H62.6777V200.126C62.6777 200.399 62.7256 200.627 62.8213 200.81C62.917 200.987 63.0469 201.131 63.2109 201.24C63.375 201.345 63.5641 201.418 63.7783 201.459C63.9971 201.5 64.2249 201.521 64.4619 201.521C64.7217 201.521 64.9814 201.502 65.2412 201.466C65.5055 201.429 65.7539 201.388 65.9863 201.343V197.631H67.1689V205H65.9863V202.375ZM70.6074 197.631V200.693H74.3057V197.631H75.4883V205H74.3057V201.78H70.6074V205H69.4248V197.631H70.6074ZM80.7793 205.116C80.2643 205.116 79.7972 205.03 79.3779 204.856C78.9587 204.679 78.6009 204.428 78.3047 204.104C78.0085 203.781 77.7783 203.391 77.6143 202.936C77.4548 202.475 77.375 201.963 77.375 201.397V201.233C77.375 200.668 77.4548 200.158 77.6143 199.702C77.7783 199.242 78.0085 198.85 78.3047 198.526C78.6009 198.203 78.9587 197.954 79.3779 197.781C79.7972 197.604 80.2643 197.515 80.7793 197.515C81.2943 197.515 81.7614 197.604 82.1807 197.781C82.5999 197.954 82.9577 198.203 83.2539 198.526C83.5501 198.85 83.778 199.242 83.9375 199.702C84.1016 200.158 84.1836 200.668 84.1836 201.233V201.397C84.1836 201.963 84.1016 202.475 83.9375 202.936C83.778 203.391 83.5501 203.781 83.2539 204.104C82.9577 204.428 82.5999 204.679 82.1807 204.856C81.7614 205.03 81.2943 205.116 80.7793 205.116ZM80.7793 204.029C81.1211 204.029 81.4242 203.97 81.6885 203.852C81.9574 203.733 82.1829 203.562 82.3652 203.339C82.5521 203.111 82.6934 202.835 82.7891 202.512C82.8893 202.184 82.9395 201.812 82.9395 201.397V201.233C82.9395 200.819 82.8893 200.447 82.7891 200.119C82.6934 199.791 82.5521 199.515 82.3652 199.292C82.1829 199.064 81.9574 198.891 81.6885 198.772C81.4242 198.654 81.1211 198.595 80.7793 198.595C80.4375 198.595 80.1322 198.654 79.8633 198.772C79.599 198.891 79.3734 199.064 79.1865 199.292C79.0042 199.515 78.863 199.791 78.7627 200.119C78.667 200.447 78.6191 200.819 78.6191 201.233V201.397C78.6191 201.812 78.667 202.184 78.7627 202.512C78.863 202.835 79.0042 203.111 79.1865 203.339C79.3734 203.562 79.599 203.733 79.8633 203.852C80.1322 203.97 80.4375 204.029 80.7793 204.029ZM88.832 205.116C88.3262 205.116 87.8659 205.03 87.4512 204.856C87.041 204.679 86.6901 204.428 86.3984 204.104C86.1068 203.781 85.8812 203.391 85.7217 202.936C85.5622 202.475 85.4824 201.963 85.4824 201.397V201.233C85.4824 200.668 85.5622 200.158 85.7217 199.702C85.8812 199.242 86.1068 198.85 86.3984 198.526C86.6901 198.203 87.041 197.954 87.4512 197.781C87.8659 197.604 88.3262 197.515 88.832 197.515C89.2057 197.515 89.5589 197.565 89.8916 197.665C90.2243 197.761 90.5228 197.902 90.7871 198.089C91.056 198.276 91.2839 198.506 91.4707 198.779C91.6621 199.053 91.8034 199.365 91.8945 199.716H90.6641C90.5182 199.36 90.2858 199.085 89.9668 198.889C89.6478 198.693 89.2695 198.595 88.832 198.595C88.4993 198.595 88.2031 198.654 87.9434 198.772C87.6836 198.891 87.4626 199.064 87.2803 199.292C87.1025 199.515 86.9658 199.791 86.8701 200.119C86.7744 200.447 86.7266 200.819 86.7266 201.233V201.397C86.7266 201.812 86.7744 202.184 86.8701 202.512C86.9658 202.835 87.1025 203.111 87.2803 203.339C87.4626 203.562 87.6836 203.733 87.9434 203.852C88.2031 203.97 88.4993 204.029 88.832 204.029C89.306 204.029 89.7025 203.92 90.0215 203.701C90.3451 203.478 90.5592 203.166 90.6641 202.765H91.8945C91.8262 203.12 91.7031 203.444 91.5254 203.735C91.3477 204.022 91.1243 204.269 90.8555 204.474C90.5911 204.679 90.2881 204.838 89.9463 204.952C89.6045 205.062 89.2331 205.116 88.832 205.116ZM92.6943 198.718V197.631H98.8398V198.718H96.3584V205H95.1758V198.718H92.6943ZM101.629 197.631V200.119H102.9C103.023 200.119 103.183 200.126 103.379 200.14C103.575 200.149 103.785 200.178 104.008 200.229C104.231 200.279 104.454 200.356 104.678 200.461C104.906 200.561 105.111 200.702 105.293 200.885C105.48 201.062 105.63 201.288 105.744 201.562C105.858 201.83 105.915 202.159 105.915 202.546C105.915 202.938 105.856 203.273 105.737 203.551C105.623 203.824 105.473 204.052 105.286 204.234C105.104 204.412 104.896 204.553 104.664 204.658C104.436 204.758 104.211 204.836 103.987 204.891C103.764 204.941 103.554 204.973 103.358 204.986C103.167 204.995 103.014 205 102.9 205H100.446V197.631H101.629ZM103.051 203.913C103.119 203.913 103.208 203.911 103.317 203.906C103.427 203.902 103.541 203.886 103.659 203.858C103.782 203.831 103.903 203.79 104.021 203.735C104.145 203.676 104.254 203.596 104.35 203.496C104.445 203.396 104.523 203.268 104.582 203.113C104.646 202.958 104.678 202.769 104.678 202.546C104.678 202.327 104.646 202.143 104.582 201.992C104.523 201.842 104.445 201.719 104.35 201.623C104.254 201.523 104.145 201.445 104.021 201.391C103.903 201.331 103.782 201.29 103.659 201.268C103.541 201.24 103.427 201.224 103.317 201.22C103.208 201.211 103.119 201.206 103.051 201.206H101.629V203.913H103.051ZM110.536 202.778V201.616L115.123 195.136H116.702V201.616H117.885V202.778H116.702V205H115.526V202.778H110.536ZM115.526 196.53H115.479L111.883 201.616H115.526V196.53Z" fill="#80808E"/>
<path d="M216.047 196.264V195.136H224.045V196.264H220.661V205H219.431V196.264H216.047ZM227.483 205.116C226.973 205.116 226.51 205.03 226.096 204.856C225.681 204.683 225.326 204.437 225.029 204.118C224.738 203.795 224.512 203.407 224.353 202.956C224.193 202.505 224.113 201.999 224.113 201.438V201.172C224.113 200.616 224.191 200.112 224.346 199.661C224.501 199.21 224.722 198.827 225.009 198.513C225.296 198.194 225.64 197.948 226.041 197.774C226.442 197.601 226.889 197.515 227.381 197.515C227.873 197.515 228.32 197.594 228.721 197.754C229.122 197.913 229.464 198.146 229.746 198.451C230.029 198.757 230.245 199.132 230.396 199.579C230.55 200.026 230.628 200.536 230.628 201.11V201.719H225.364C225.378 202.083 225.439 202.409 225.549 202.696C225.658 202.979 225.804 203.22 225.986 203.421C226.173 203.617 226.396 203.767 226.656 203.872C226.916 203.977 227.203 204.029 227.518 204.029C227.932 204.029 228.29 203.938 228.591 203.756C228.896 203.574 229.126 203.318 229.281 202.99H230.525C230.425 203.314 230.279 203.608 230.088 203.872C229.901 204.132 229.675 204.355 229.411 204.542C229.151 204.724 228.857 204.866 228.529 204.966C228.206 205.066 227.857 205.116 227.483 205.116ZM229.377 200.721C229.336 200.01 229.145 199.479 228.803 199.128C228.465 198.777 228.001 198.602 227.408 198.602C227.121 198.602 226.857 198.649 226.615 198.745C226.378 198.841 226.171 198.98 225.993 199.162C225.82 199.344 225.679 199.568 225.569 199.832C225.465 200.092 225.398 200.388 225.371 200.721H229.377ZM234.012 197.631L236.664 203.592H236.691L239.33 197.631H240.786V205H239.604V199.477H239.562L237.204 204.795H236.09L233.725 199.477H233.697V205H232.515V197.631H234.012ZM249.044 197.631V205H247.861V198.718H244.225V205H243.042V197.631H249.044ZM254.923 196.264V195.136H261.554V196.264L257.691 205H256.365L260.255 196.264H254.923Z" fill="#80808E"/>
<path d="M260.128 98.1094C258.943 98.1094 258.025 97.8451 257.373 97.3164C256.721 96.7832 256.359 96.0153 256.286 95.0127H257.592C257.633 95.3545 257.713 95.6484 257.831 95.8945C257.95 96.1406 258.111 96.3457 258.316 96.5098C258.526 96.6693 258.779 96.7878 259.075 96.8652C259.376 96.9427 259.727 96.9814 260.128 96.9814C260.916 96.9814 261.518 96.8356 261.933 96.5439C262.347 96.2523 262.555 95.8171 262.555 95.2383C262.555 94.6641 262.343 94.2288 261.919 93.9326C261.5 93.6364 260.875 93.4883 260.046 93.4883H258.672V92.3604H260.046C260.789 92.3604 261.347 92.2214 261.721 91.9434C262.094 91.6654 262.281 91.2643 262.281 90.7402C262.281 90.2298 262.106 89.8379 261.755 89.5645C261.409 89.2865 260.916 89.1475 260.278 89.1475C258.856 89.1475 258.027 89.7536 257.79 90.9658H256.464C256.519 90.4964 256.646 90.0794 256.847 89.7148C257.047 89.3457 257.309 89.0358 257.633 88.7852C257.961 88.5345 258.344 88.3454 258.781 88.2178C259.219 88.0856 259.702 88.0195 260.23 88.0195C260.782 88.0195 261.265 88.0879 261.68 88.2246C262.094 88.3568 262.441 88.5413 262.719 88.7783C262.997 89.0107 263.204 89.2865 263.341 89.6055C263.482 89.9199 263.553 90.2572 263.553 90.6172C263.553 90.8633 263.516 91.1003 263.443 91.3281C263.37 91.5514 263.263 91.7611 263.122 91.957C262.981 92.1484 262.805 92.3193 262.596 92.4697C262.386 92.6201 262.145 92.7386 261.871 92.8252V92.8662C262.536 93.0667 263.029 93.3743 263.348 93.7891C263.667 94.1992 263.826 94.6846 263.826 95.2451C263.826 95.6644 263.746 96.0495 263.587 96.4004C263.432 96.7513 263.197 97.0544 262.883 97.3096C262.573 97.5602 262.188 97.7562 261.728 97.8975C261.267 98.0387 260.734 98.1094 260.128 98.1094ZM267.771 98.1094C267.392 98.1094 267.053 98.0524 266.752 97.9385C266.451 97.8245 266.194 97.665 265.979 97.46C265.765 97.2549 265.601 97.0111 265.487 96.7285C265.373 96.4414 265.316 96.127 265.316 95.7852C265.316 95.4069 265.38 95.0856 265.508 94.8213C265.635 94.557 265.799 94.3405 266 94.1719C266.205 93.9987 266.433 93.8665 266.684 93.7754C266.939 93.6797 267.189 93.6113 267.436 93.5703C267.682 93.5247 267.912 93.4974 268.126 93.4883C268.34 93.4792 268.513 93.4746 268.646 93.4746H270.211V93.1396C270.211 93.0758 270.206 92.9915 270.197 92.8867C270.193 92.7819 270.172 92.6725 270.136 92.5586C270.104 92.4447 270.054 92.3307 269.985 92.2168C269.917 92.0983 269.821 91.9935 269.698 91.9023C269.575 91.8066 269.418 91.7292 269.227 91.6699C269.04 91.6107 268.81 91.5811 268.536 91.5811C267.561 91.5811 266.993 91.9525 266.834 92.6953H265.624C265.67 92.3535 265.765 92.0482 265.911 91.7793C266.062 91.5104 266.26 91.2826 266.506 91.0957C266.752 90.9043 267.041 90.7607 267.374 90.665C267.711 90.5648 268.09 90.5146 268.509 90.5146C268.978 90.5146 269.377 90.5716 269.705 90.6855C270.033 90.7995 270.302 90.9453 270.512 91.123C270.726 91.3008 270.892 91.499 271.011 91.7178C271.129 91.9365 271.216 92.153 271.271 92.3672C271.33 92.5768 271.364 92.7705 271.373 92.9482C271.387 93.126 271.394 93.265 271.394 93.3652V96.1885C271.394 96.3617 271.407 96.4984 271.435 96.5986C271.462 96.6989 271.505 96.7741 271.564 96.8242C271.628 96.8743 271.71 96.9062 271.811 96.9199C271.911 96.9336 272.034 96.9404 272.18 96.9404V98H271.605C271.359 98 271.154 97.9658 270.99 97.8975C270.826 97.8291 270.694 97.7402 270.594 97.6309C270.493 97.5169 270.423 97.3916 270.382 97.2549C270.341 97.1136 270.32 96.9701 270.32 96.8242H270.293C270.065 97.248 269.737 97.5693 269.309 97.7881C268.88 98.0023 268.368 98.1094 267.771 98.1094ZM267.955 97.0566C268.274 97.0566 268.57 97.0042 268.844 96.8994C269.122 96.7946 269.361 96.6488 269.562 96.4619C269.767 96.2751 269.926 96.0518 270.04 95.792C270.154 95.5277 270.211 95.2383 270.211 94.9238V94.4932H268.728C268.604 94.4932 268.463 94.4954 268.304 94.5C268.149 94.5046 267.989 94.5205 267.825 94.5479C267.666 94.5706 267.508 94.6094 267.354 94.6641C267.199 94.7142 267.06 94.7848 266.937 94.876C266.813 94.9671 266.715 95.0833 266.643 95.2246C266.57 95.3659 266.533 95.5391 266.533 95.7441C266.533 95.9219 266.563 96.0905 266.622 96.25C266.686 96.4095 266.777 96.5508 266.896 96.6738C267.019 96.7923 267.169 96.8857 267.347 96.9541C267.524 97.0225 267.727 97.0566 267.955 97.0566ZM274.941 90.6309V96.9131H277.751V90.6309H278.934V96.9131H281.743V90.6309H282.926V96.9131H283.89V99.8457H282.769V98H273.759V90.6309H274.941ZM286.508 90.6309V96.4004H286.535L289.974 90.6309H291.375V98H290.192V92.2305H290.165L286.727 98H285.325V90.6309H286.508ZM292.981 91.7178V90.6309H299.127V91.7178H296.646V98H295.463V91.7178H292.981ZM302.593 98.1094C302.215 98.1094 301.875 98.0524 301.574 97.9385C301.273 97.8245 301.016 97.665 300.802 97.46C300.588 97.2549 300.424 97.0111 300.31 96.7285C300.196 96.4414 300.139 96.127 300.139 95.7852C300.139 95.4069 300.202 95.0856 300.33 94.8213C300.458 94.557 300.622 94.3405 300.822 94.1719C301.027 93.9987 301.255 93.8665 301.506 93.7754C301.761 93.6797 302.012 93.6113 302.258 93.5703C302.504 93.5247 302.734 93.4974 302.948 93.4883C303.162 93.4792 303.336 93.4746 303.468 93.4746H305.033V93.1396C305.033 93.0758 305.029 92.9915 305.02 92.8867C305.015 92.7819 304.994 92.6725 304.958 92.5586C304.926 92.4447 304.876 92.3307 304.808 92.2168C304.739 92.0983 304.644 91.9935 304.521 91.9023C304.397 91.8066 304.24 91.7292 304.049 91.6699C303.862 91.6107 303.632 91.5811 303.358 91.5811C302.383 91.5811 301.816 91.9525 301.656 92.6953H300.446C300.492 92.3535 300.588 92.0482 300.733 91.7793C300.884 91.5104 301.082 91.2826 301.328 91.0957C301.574 90.9043 301.864 90.7607 302.196 90.665C302.534 90.5648 302.912 90.5146 303.331 90.5146C303.8 90.5146 304.199 90.5716 304.527 90.6855C304.855 90.7995 305.124 90.9453 305.334 91.123C305.548 91.3008 305.715 91.499 305.833 91.7178C305.951 91.9365 306.038 92.153 306.093 92.3672C306.152 92.5768 306.186 92.7705 306.195 92.9482C306.209 93.126 306.216 93.265 306.216 93.3652V96.1885C306.216 96.3617 306.229 96.4984 306.257 96.5986C306.284 96.6989 306.327 96.7741 306.387 96.8242C306.451 96.8743 306.533 96.9062 306.633 96.9199C306.733 96.9336 306.856 96.9404 307.002 96.9404V98H306.428C306.182 98 305.977 97.9658 305.812 97.8975C305.648 97.8291 305.516 97.7402 305.416 97.6309C305.316 97.5169 305.245 97.3916 305.204 97.2549C305.163 97.1136 305.143 96.9701 305.143 96.8242H305.115C304.887 97.248 304.559 97.5693 304.131 97.7881C303.702 98.0023 303.19 98.1094 302.593 98.1094ZM302.777 97.0566C303.096 97.0566 303.393 97.0042 303.666 96.8994C303.944 96.7946 304.183 96.6488 304.384 96.4619C304.589 96.2751 304.748 96.0518 304.862 95.792C304.976 95.5277 305.033 95.2383 305.033 94.9238V94.4932H303.55C303.427 94.4932 303.285 94.4954 303.126 94.5C302.971 94.5046 302.812 94.5205 302.647 94.5479C302.488 94.5706 302.331 94.6094 302.176 94.6641C302.021 94.7142 301.882 94.7848 301.759 94.876C301.636 94.9671 301.538 95.0833 301.465 95.2246C301.392 95.3659 301.355 95.5391 301.355 95.7441C301.355 95.9219 301.385 96.0905 301.444 96.25C301.508 96.4095 301.599 96.5508 301.718 96.6738C301.841 96.7923 301.991 96.8857 302.169 96.9541C302.347 97.0225 302.549 97.0566 302.777 97.0566ZM315.807 93.7617C316.148 93.4564 316.433 93.1807 316.661 92.9346C316.894 92.6839 317.078 92.4492 317.215 92.2305C317.356 92.0072 317.456 91.793 317.516 91.5879C317.575 91.3828 317.604 91.1732 317.604 90.959C317.604 90.6855 317.561 90.4372 317.475 90.2139C317.388 89.9906 317.26 89.7992 317.092 89.6396C316.923 89.4801 316.714 89.3571 316.463 89.2705C316.212 89.1839 315.923 89.1406 315.595 89.1406C315.271 89.1406 314.982 89.1862 314.727 89.2773C314.471 89.3639 314.255 89.4893 314.077 89.6533C313.904 89.8128 313.77 90.0088 313.674 90.2412C313.583 90.4736 313.537 90.7334 313.537 91.0205H312.307C312.307 90.5785 312.384 90.1751 312.539 89.8105C312.694 89.4414 312.913 89.1247 313.195 88.8604C313.482 88.596 313.829 88.391 314.234 88.2451C314.64 88.0947 315.093 88.0195 315.595 88.0195C316.101 88.0195 316.554 88.0924 316.955 88.2383C317.356 88.3841 317.696 88.5892 317.974 88.8535C318.256 89.1133 318.473 89.4232 318.623 89.7832C318.773 90.1387 318.849 90.5283 318.849 90.9521C318.849 91.2484 318.808 91.5355 318.726 91.8135C318.648 92.0915 318.523 92.3717 318.35 92.6543C318.181 92.9368 317.96 93.2285 317.687 93.5293C317.418 93.8301 317.09 94.1491 316.702 94.4863L314.009 96.8447V96.8721H318.835V98H312.307V96.8721L315.807 93.7617Z" fill="#80808E"/>
<defs>
<filter id="filter0_i_17748_18147" x="136.5" y="67" width="82.2" height="119.2" filterUnits="userSpaceOnUse" color-interpolation-filters="sRGB">
<feFlood flood-opacity="0" result="BackgroundImageFix"/>
<feBlend mode="normal" in="SourceGraphic" in2="BackgroundImageFix" result="shape"/>
<feColorMatrix in="SourceAlpha" type="matrix" values="0 0 0 0 0 0 0 0 0 0 0 0 0 0 0 0 0 0 127 0" result="hardAlpha"/>
<feOffset dx="20" dy="20"/>
<feGaussianBlur stdDeviation="7.35"/>
<feComposite in2="hardAlpha" operator="arithmetic" k2="-1" k3="1"/>
<feColorMatrix type="matrix" values="0 0 0 0 1 0 0 0 0 1 0 0 0 0 1 0 0 0 0.25 0"/>
<feBlend mode="normal" in2="shape" result="effect1_innerShadow_17748_18147"/>
</filter>
<radialGradient id="paint0_radial_17748_18147" cx="0" cy="0" r="1" gradientUnits="userSpaceOnUse" gradientTransform="translate(170.25 119.25) rotate(90) scale(52.25 33.75)">
<stop stop-color="#FFDB40"/>
<stop offset="1" stop-color="#FFAF40"/>
</radialGradient>
</defs>
</svg>
