<svg width="44" height="44" viewBox="0 0 44 44" fill="none" xmlns="http://www.w3.org/2000/svg">
<path d="M15.4634 2.22157C19.415 -0.740522 24.585 -0.740522 28.5366 2.22156C30.5538 3.73359 32.9503 5.75096 35.5997 8.40032C38.249 11.0497 40.2664 13.4462 41.7784 15.4634C44.7405 19.415 44.7405 24.585 41.7784 28.5366C40.2664 30.5538 38.249 32.9503 35.5997 35.5997C32.9503 38.249 30.5538 40.2664 28.5366 41.7784C24.585 44.7405 19.415 44.7405 15.4634 41.7784C13.4462 40.2664 11.0497 38.249 8.40031 35.5997C5.75096 32.9503 3.73359 30.5538 2.22157 28.5366C-0.740521 24.585 -0.740522 19.415 2.22156 15.4634C3.73359 13.4462 5.75096 11.0497 8.40032 8.40032C11.0497 5.75096 13.4462 3.73359 15.4634 2.22157Z" fill="white"/>
<path d="M14 14.2024C14 12.9861 15.0233 12 16.2857 12H27.7143C28.9767 12 30 12.9861 30 14.2024V28.7313C30 31.582 26.4723 33.0614 24.3072 31.1187C23.0073 29.9523 20.9927 29.9523 19.6928 31.1187C17.5277 33.0614 14 31.582 14 28.7313V14.2024Z" fill="black"/>
</svg>
