<svg width="44" height="44" viewBox="0 0 44 44" fill="none" xmlns="http://www.w3.org/2000/svg">
<path d="M15.4634 2.22157C19.415 -0.740522 24.585 -0.740522 28.5366 2.22156C30.5538 3.73359 32.9503 5.75096 35.5997 8.40032C38.249 11.0497 40.2664 13.4462 41.7784 15.4634C44.7405 19.415 44.7405 24.585 41.7784 28.5366C40.2664 30.5538 38.249 32.9503 35.5997 35.5997C32.9503 38.249 30.5538 40.2664 28.5366 41.7784C24.585 44.7405 19.415 44.7405 15.4634 41.7784C13.4462 40.2664 11.0497 38.249 8.40031 35.5997C5.75096 32.9503 3.73359 30.5538 2.22157 28.5366C-0.740521 24.585 -0.740522 19.415 2.22156 15.4634C3.73359 13.4462 5.75096 11.0497 8.40032 8.40032C11.0497 5.75096 13.4462 3.73359 15.4634 2.22157Z" fill="white"/>
<path fill-rule="evenodd" clip-rule="evenodd" d="M28.25 10.75L15.75 10.75L15.75 13.25L13.25 13.25C12 13.25 10.75 14.25 10.75 15.75C10.75 18.0851 10.75 22.0559 15.8428 23.0789C16.283 25.6088 18.2444 27.6164 20.75 28.125L20.75 30.75L17 30.75L17 33.25L27 33.25L27 30.75L23.25 30.75L23.25 28.125C25.7557 27.6164 27.717 25.6087 28.1572 23.0789C33.25 22.0559 33.25 18.0851 33.25 15.75C33.25 14.25 32 13.25 30.75 13.25L28.25 13.25L28.25 10.75ZM28.25 15.75L28.25 20.5366C29.7065 20.0218 30.75 18.6328 30.75 17V15.75L28.25 15.75ZM13.25 15.75L15.75 15.75L15.75 20.5366C14.2935 20.0218 13.25 18.6328 13.25 17L13.25 15.75Z" fill="black"/>
</svg>
