<svg width="44" height="44" viewBox="0 0 44 44" fill="none" xmlns="http://www.w3.org/2000/svg">
<path d="M15.4634 2.22157C19.415 -0.740522 24.585 -0.740522 28.5366 2.22156C30.5538 3.73359 32.9503 5.75096 35.5997 8.40032C38.249 11.0497 40.2664 13.4462 41.7784 15.4634C44.7405 19.415 44.7405 24.585 41.7784 28.5366C40.2664 30.5538 38.249 32.9503 35.5997 35.5997C32.9503 38.249 30.5538 40.2664 28.5366 41.7784C24.585 44.7405 19.415 44.7405 15.4634 41.7784C13.4462 40.2664 11.0497 38.249 8.40031 35.5997C5.75096 32.9503 3.73359 30.5538 2.22157 28.5366C-0.740521 24.585 -0.740522 19.415 2.22156 15.4634C3.73359 13.4462 5.75096 11.0497 8.40032 8.40032C11.0497 5.75096 13.4462 3.73359 15.4634 2.22157Z" fill="white"/>
<path d="M35 15.2187C35 16.8038 33.8335 18.1448 32.2701 18.3569L29.0909 18.7881V26.6788C29.0909 27.3691 28.662 27.9859 28.017 28.2233C24.1319 29.6532 19.8681 29.6532 15.983 28.2233C15.338 27.9859 14.9091 27.3691 14.9091 26.6788V18.7881L11.7299 18.3569C10.1665 18.1448 9 16.8038 9 15.2187V15L35 15V15.2187Z" fill="black"/>
<path d="M31.4545 20.8631V29.7693C30.7481 30.4145 30.2727 31.5376 30.2727 32.4167C30.2727 33.7283 31.331 34 32.6364 34C33.9418 34 35 33.7283 35 32.4167C35 31.5376 34.5247 30.4145 33.8182 29.7693V20.3948C33.4282 20.5444 33.0158 20.6513 32.5863 20.7096L31.4545 20.8631Z" fill="black"/>
</svg>
