<svg width="44" height="44" viewBox="0 0 44 44" fill="none" xmlns="http://www.w3.org/2000/svg">
<path d="M15.4634 2.22157C19.415 -0.740522 24.585 -0.740522 28.5366 2.22156C30.5538 3.73359 32.9503 5.75096 35.5997 8.40032C38.249 11.0497 40.2664 13.4462 41.7784 15.4634C44.7405 19.415 44.7405 24.585 41.7784 28.5366C40.2664 30.5538 38.249 32.9503 35.5997 35.5997C32.9503 38.249 30.5538 40.2664 28.5366 41.7784C24.585 44.7405 19.415 44.7405 15.4634 41.7784C13.4462 40.2664 11.0497 38.249 8.40031 35.5997C5.75096 32.9503 3.73359 30.5538 2.22157 28.5366C-0.740521 24.585 -0.740522 19.415 2.22156 15.4634C3.73359 13.4462 5.75096 11.0497 8.40032 8.40032C11.0497 5.75096 13.4462 3.73359 15.4634 2.22157Z" fill="white"/>
<path d="M20.7259 31.7782C20.2971 26.7991 17.2006 23.7023 12.2217 23.2733C11.5492 23.2154 10.9998 22.6746 11 21.9995C11.0002 21.3246 11.5495 20.7842 12.2217 20.7263C17.2004 20.2976 20.2976 17.2011 20.7264 12.2219C20.7843 11.5493 21.325 11 22.0001 11C22.675 11 23.2155 11.5494 23.2734 12.2219C23.7021 17.2009 26.7982 20.2975 31.7783 20.7263C32.4508 20.7842 33.0002 21.3249 33 22C32.9998 22.6749 32.4505 23.2152 31.7783 23.2731C26.7984 23.7018 23.7016 26.7987 23.2727 31.7782C23.215 32.4507 22.6743 33 21.9994 33C21.3243 33 20.7838 32.4507 20.7259 31.7782Z" fill="black"/>
</svg>
