<svg width="44" height="44" viewBox="0 0 44 44" fill="none" xmlns="http://www.w3.org/2000/svg">
<path d="M15.4634 2.22157C19.415 -0.740522 24.585 -0.740522 28.5366 2.22156C30.5538 3.73359 32.9503 5.75096 35.5997 8.40032C38.249 11.0497 40.2664 13.4462 41.7784 15.4634C44.7405 19.415 44.7405 24.585 41.7784 28.5366C40.2664 30.5538 38.249 32.9503 35.5997 35.5997C32.9503 38.249 30.5538 40.2664 28.5366 41.7784C24.585 44.7405 19.415 44.7405 15.4634 41.7784C13.4462 40.2664 11.0497 38.249 8.40031 35.5997C5.75096 32.9503 3.73359 30.5538 2.22157 28.5366C-0.740521 24.585 -0.740522 19.415 2.22156 15.4634C3.73359 13.4462 5.75096 11.0497 8.40032 8.40032C11.0497 5.75096 13.4462 3.73359 15.4634 2.22157Z" fill="white"/>
<path fill-rule="evenodd" clip-rule="evenodd" d="M20.2969 10C21.0085 10 21.3707 10.5275 21.5089 10.7927C21.6666 11.0955 21.7495 11.4455 21.7977 11.723C21.8192 11.8468 21.8345 11.9692 21.8468 12.0838C25.3451 12.5512 28.216 14.0054 30.1626 17.0607C32.2051 20.2666 33.1541 25.1232 32.9797 32.1516C32.9678 32.623 32.5657 33 32.0732 33H16.1409C15.6399 33 15.2344 32.6103 15.2344 32.1305C15.2345 28.7065 17.3356 27.344 18.7818 25.9183C19.5118 25.1986 20.1475 24.4253 20.5419 23.3041C20.6529 22.9883 20.7447 22.6388 20.8148 22.2492C19.5918 23.3568 18.1823 24.3389 17.343 24.8749C17.3407 24.8765 17.3393 24.8792 17.337 24.8807C16.4498 25.448 16.0535 26.0366 15.6109 26.595C15.4012 26.8596 15.1199 27.198 14.7241 27.4268C14.2803 27.6832 13.783 27.7571 13.2309 27.6746C13.0558 27.6484 12.8931 27.5735 12.7629 27.4608C12.6133 27.3315 12.5053 27.1877 12.4294 27.0392C12.3101 27.0504 12.1541 27.0651 11.9856 27.071C11.6347 27.0835 11.1548 27.0643 10.6739 26.8667C9.64852 26.4452 9.07227 25.4393 9.00605 23.8258V23.8178L9 23.4997V23.4932C9.00001 23.1663 9.11464 22.7947 9.2306 22.4796C9.35739 22.1351 9.53284 21.7392 9.73337 21.3225C10.1354 20.487 10.6657 19.5122 11.1888 18.5924C11.7134 17.6699 12.2377 16.7905 12.6298 16.1427C12.8259 15.8187 12.9892 15.5519 13.1038 15.366C13.1605 15.2741 13.2058 15.2002 13.2369 15.1501L13.2377 15.1494L13.2724 15.0928C13.276 15.0871 13.2796 15.0823 13.2823 15.0783C13.2873 15.07 13.2924 15.0617 13.2982 15.0537L13.3337 15.0037C13.3379 14.9978 13.3427 14.992 13.3473 14.9863C13.3708 14.9573 13.3957 14.9307 13.4199 14.9074L13.4259 14.9008C13.4369 14.89 13.4456 14.882 13.4592 14.8682C13.4895 14.8374 13.5344 14.7909 13.5885 14.732C13.6985 14.6122 13.8448 14.444 13.9914 14.2487C14.2291 13.9323 14.4097 13.6177 14.4935 13.3604C14.0339 12.5016 14.1956 11.5874 14.1956 11.2013C14.1956 10.9708 14.2911 10.7498 14.461 10.5869C14.712 10.3462 15.0377 10.213 15.3901 10.213C15.7088 10.213 15.9778 10.3213 16.1689 10.426C16.5412 10.6302 16.8639 10.9573 17.0973 11.2259C17.3295 11.4932 17.5332 11.7753 17.6825 11.9932H18.0053C18.0679 11.8856 18.1406 11.7655 18.2268 11.6396C18.5525 11.1643 19.0779 10.5465 19.8387 10.1188L19.8629 10.1065L19.9249 10.0775L19.9461 10.0681C20.0562 10.0238 20.1756 10 20.2969 10Z" fill="black"/>
</svg>
