<svg width="44" height="44" viewBox="0 0 44 44" fill="none" xmlns="http://www.w3.org/2000/svg">
<g filter="url(#filter0_i_17753_58094)">
<path d="M15.4634 2.22157C19.415 -0.740521 24.585 -0.740522 28.5366 2.22157C30.5538 3.73359 32.9503 5.75096 35.5997 8.40032C38.249 11.0497 40.2664 13.4462 41.7784 15.4634C44.7405 19.415 44.7405 24.585 41.7784 28.5366C40.2664 30.5538 38.249 32.9503 35.5997 35.5997C32.9503 38.249 30.5538 40.2664 28.5366 41.7784C24.585 44.7405 19.415 44.7405 15.4634 41.7784C13.4462 40.2664 11.0497 38.249 8.40032 35.5997C5.75096 32.9503 3.73359 30.5538 2.22157 28.5366C-0.740521 24.585 -0.740522 19.415 2.22156 15.4634C3.73359 13.4462 5.75096 11.0497 8.40032 8.40032C11.0497 5.75096 13.4462 3.73359 15.4634 2.22157Z" fill="white"/>
</g>
<g filter="url(#filter1_ii_17753_58094)">
<path d="M15.4633 2.22153C19.4149 -0.740511 24.5849 -0.740511 28.5365 2.22153C30.5537 3.73355 32.9502 5.75108 35.5995 8.40044C38.2489 11.0498 40.2664 13.4463 41.7784 15.4634C44.7405 19.415 44.7405 24.5851 41.7784 28.5367L41.4889 28.9191C40.0117 30.8542 38.0834 33.1158 35.5995 35.5997C32.9502 38.249 30.5537 40.2665 28.5365 41.7786L28.3501 41.915C24.4858 44.6947 19.5141 44.6947 15.6497 41.915L15.4633 41.7786C13.5722 40.361 11.3476 38.4992 8.8939 36.089L8.40029 35.5997C5.75093 32.9503 3.73341 30.5538 2.22139 28.5367C-0.694364 24.6468 -0.739647 19.5765 2.08496 15.6498L2.22139 15.4634C3.63893 13.5723 5.50075 11.3478 7.91099 8.89404L8.40029 8.40044C10.8841 5.9166 13.1458 3.98825 15.0809 2.51104L15.4633 2.22153ZM27.4811 3.62983C24.1551 1.13671 19.8447 1.13671 16.5187 3.62983C14.5677 5.09231 12.2345 7.0552 9.64478 9.64492C7.05506 12.2346 5.09217 14.5678 3.62969 16.5188C1.13656 19.8448 1.13656 24.1553 3.62969 27.4812C5.09217 29.4323 7.05506 31.7655 9.64478 34.3552C12.2345 36.9449 14.5677 38.9078 16.5187 40.3703C19.8447 42.8634 24.1551 42.8634 27.4811 40.3703C29.4321 38.9078 31.7653 36.9449 34.355 34.3552C36.9447 31.7655 38.9076 29.4323 40.3701 27.4812C42.8632 24.1553 42.8632 19.8448 40.3701 16.5188C38.9076 14.5678 36.9447 12.2346 34.355 9.64492C31.7653 7.05521 29.4321 5.09231 27.4811 3.62983Z" fill="url(#paint0_linear_17753_58094)"/>
</g>
<path d="M15.4633 2.22153C19.4149 -0.740511 24.5849 -0.740511 28.5365 2.22153C30.5537 3.73355 32.9502 5.75108 35.5995 8.40044C38.2489 11.0498 40.2664 13.4463 41.7784 15.4634C44.7405 19.415 44.7405 24.5851 41.7784 28.5367L41.4889 28.9191C40.0117 30.8542 38.0834 33.1158 35.5995 35.5997C32.9502 38.249 30.5537 40.2665 28.5365 41.7786L28.3501 41.915C24.4858 44.6947 19.5141 44.6947 15.6497 41.915L15.4633 41.7786C13.5722 40.361 11.3476 38.4992 8.8939 36.089L8.40029 35.5997C5.75093 32.9503 3.73341 30.5538 2.22139 28.5367C-0.694364 24.6468 -0.739647 19.5765 2.08496 15.6498L2.22139 15.4634C3.63893 13.5723 5.50075 11.3478 7.91099 8.89404L8.40029 8.40044C10.8841 5.9166 13.1458 3.98825 15.0809 2.51104L15.4633 2.22153ZM27.4811 3.62983C24.1551 1.13671 19.8447 1.13671 16.5187 3.62983C14.5677 5.09231 12.2345 7.0552 9.64478 9.64492C7.05506 12.2346 5.09217 14.5678 3.62969 16.5188C1.13656 19.8448 1.13656 24.1553 3.62969 27.4812C5.09217 29.4323 7.05506 31.7655 9.64478 34.3552C12.2345 36.9449 14.5677 38.9078 16.5187 40.3703C19.8447 42.8634 24.1551 42.8634 27.4811 40.3703C29.4321 38.9078 31.7653 36.9449 34.355 34.3552C36.9447 31.7655 38.9076 29.4323 40.3701 27.4812C42.8632 24.1553 42.8632 19.8448 40.3701 16.5188C38.9076 14.5678 36.9447 12.2346 34.355 9.64492C31.7653 7.05521 29.4321 5.09231 27.4811 3.62983Z" fill="#F2F3F5"/>
<path d="M18.1719 25.0518V23.5068L22.123 17.1357H24.7891V23.3223H25.9512V25.0518H24.7891V27H22.9502V25.0518H18.1719ZM22.9502 18.8037H22.916L20.1201 23.3223H22.9502V18.8037Z" fill="#80808E"/>
<defs>
<filter id="filter0_i_17753_58094" x="0" y="0" width="50.468" height="50.468" filterUnits="userSpaceOnUse" color-interpolation-filters="sRGB">
<feFlood flood-opacity="0" result="BackgroundImageFix"/>
<feBlend mode="normal" in="SourceGraphic" in2="BackgroundImageFix" result="shape"/>
<feColorMatrix in="SourceAlpha" type="matrix" values="0 0 0 0 0 0 0 0 0 0 0 0 0 0 0 0 0 0 127 0" result="hardAlpha"/>
<feOffset dx="8.8" dy="8.8"/>
<feGaussianBlur stdDeviation="3.234"/>
<feComposite in2="hardAlpha" operator="arithmetic" k2="-1" k3="1"/>
<feColorMatrix type="matrix" values="0 0 0 0 1 0 0 0 0 1 0 0 0 0 1 0 0 0 0.25 0"/>
<feBlend mode="normal" in2="shape" result="effect1_innerShadow_17753_58094"/>
</filter>
<filter id="filter1_ii_17753_58094" x="0" y="0" width="45.1" height="44.44" filterUnits="userSpaceOnUse" color-interpolation-filters="sRGB">
<feFlood flood-opacity="0" result="BackgroundImageFix"/>
<feBlend mode="normal" in="SourceGraphic" in2="BackgroundImageFix" result="shape"/>
<feColorMatrix in="SourceAlpha" type="matrix" values="0 0 0 0 0 0 0 0 0 0 0 0 0 0 0 0 0 0 127 0" result="hardAlpha"/>
<feOffset dx="1.1"/>
<feGaussianBlur stdDeviation="0.715"/>
<feComposite in2="hardAlpha" operator="arithmetic" k2="-1" k3="1"/>
<feColorMatrix type="matrix" values="0 0 0 0 1 0 0 0 0 1 0 0 0 0 1 0 0 0 0.25 0"/>
<feBlend mode="normal" in2="shape" result="effect1_innerShadow_17753_58094"/>
<feColorMatrix in="SourceAlpha" type="matrix" values="0 0 0 0 0 0 0 0 0 0 0 0 0 0 0 0 0 0 127 0" result="hardAlpha"/>
<feOffset dx="0.55" dy="0.55"/>
<feGaussianBlur stdDeviation="0.22"/>
<feComposite in2="hardAlpha" operator="arithmetic" k2="-1" k3="1"/>
<feColorMatrix type="matrix" values="0 0 0 0 1 0 0 0 0 1 0 0 0 0 1 0 0 0 0.25 0"/>
<feBlend mode="normal" in2="effect1_innerShadow_17753_58094" result="effect2_innerShadow_17753_58094"/>
</filter>
<linearGradient id="paint0_linear_17753_58094" x1="22" y1="0" x2="22" y2="43.9998" gradientUnits="userSpaceOnUse">
<stop/>
<stop offset="1" stop-color="#A0A0A0"/>
</linearGradient>
</defs>
</svg>
